<?xml version="1.0" encoding="UTF-8" standalone="no"?>
<!DOCTYPE svg PUBLIC "-//W3C//DTD SVG 1.1//EN" "http://www.w3.org/Graphics/SVG/1.1/DTD/svg11.dtd">
<svg width="100%" height="100%" viewBox="0 0 200 200" version="1.1" xmlns="http://www.w3.org/2000/svg" xmlns:xlink="http://www.w3.org/1999/xlink" xml:space="preserve" xmlns:serif="http://www.serif.com/" style="fill-rule:evenodd;clip-rule:evenodd;stroke-linejoin:round;stroke-miterlimit:2;">
    <g transform="matrix(0.204626,0,0,0.219565,-175.587,-211.053)">
        <path d="M1087.49,1162.69C1175.45,851.992 1473.85,1006.06 1488.47,1079.92C1588.64,1017.34 1713.24,1088.53 1707.35,1190.28C1915.34,1219.33 1850.07,1628.3 1582.27,1484.45L1589.63,1830.36C1441.58,1748.44 1280.92,1729.57 1113.24,1745.75C1142.51,1757.87 1199.19,1774.1 1326.61,1800.93C1261.37,1784.28 1150.95,1805.28 1026.8,1837.72C1024.78,1769.12 1036.58,1650.76 1054.18,1474.26C1055.33,1492.25 1047.81,1490.52 1006.56,1490.09C731.839,1414.29 895.644,1110.34 1087.49,1162.69Z"/>
        <path d="M1026.66,1831.86C1026.69,1833.85 1026.74,1835.81 1026.8,1837.72L1032.85,1836.14C1044.5,1833.12 1056.03,1830.21 1067.39,1827.42C1069.79,1826.84 1072.18,1826.25 1074.56,1825.68L1080.41,1824.27C1084.3,1823.34 1088.17,1822.43 1092.03,1821.53L1092.62,1821.4C1096.27,1820.55 1099.9,1819.71 1103.52,1818.9L1097.79,1820.2L1092.03,1821.53C1088.18,1822.43 1084.31,1823.34 1080.41,1824.27L1074.56,1825.68C1072.18,1826.25 1069.79,1826.83 1067.39,1827.42C1056.02,1830.21 1044.5,1833.12 1032.85,1836.14L1026.8,1837.72C1026.74,1835.81 1026.69,1833.85 1026.66,1831.86C1026.63,1830.22 1026.61,1828.55 1026.59,1826.84L1026.62,1829.64L1026.66,1831.86ZM1702.86,1514.28C1695.32,1515.04 1687.45,1515.22 1679.28,1514.76C1677.88,1514.68 1676.46,1514.59 1675.04,1514.47L1672.61,1514.26C1671.79,1514.18 1670.97,1514.09 1670.15,1514L1667.68,1513.71L1665.19,1513.38L1662.68,1513.01L1661.72,1512.86C1660.21,1512.62 1658.69,1512.36 1657.17,1512.08C1653.33,1511.37 1649.43,1510.53 1645.48,1509.56L1644.63,1509.35L1641.98,1508.67C1641.09,1508.42 1640.2,1508.18 1639.31,1507.94L1636.63,1507.18L1633.92,1506.37C1633.02,1506.09 1632.11,1505.81 1631.2,1505.52L1628.84,1504.76C1620.48,1502 1611.88,1498.66 1603.03,1494.69C1611.88,1498.66 1620.48,1502 1628.84,1504.76L1631.2,1505.52C1632.11,1505.81 1633.02,1506.09 1633.92,1506.37L1636.63,1507.18L1639.31,1507.94C1640.2,1508.18 1641.09,1508.42 1641.98,1508.67L1644.63,1509.35L1645.48,1509.56C1649.43,1510.53 1653.33,1511.37 1657.17,1512.08C1658.69,1512.36 1660.21,1512.62 1661.72,1512.86L1662.68,1513.01L1665.19,1513.38L1667.68,1513.71L1670.15,1514C1670.97,1514.09 1671.79,1514.18 1672.61,1514.26L1675.04,1514.47C1676.46,1514.59 1677.88,1514.69 1679.28,1514.76C1688.26,1515.26 1696.85,1515 1705.06,1514.04L1702.86,1514.28ZM1120.51,1815.15C1126.13,1813.94 1131.69,1812.78 1137.19,1811.66L1138.49,1811.4C1151.6,1808.75 1164.38,1806.38 1176.8,1804.31L1179.96,1803.78L1185.12,1802.96L1190.23,1802.17L1195.3,1801.41C1196.97,1801.18 1198.64,1800.94 1200.32,1800.7L1195.3,1801.41L1190.23,1802.17L1185.12,1802.96L1179.96,1803.78L1176.8,1804.31C1164.38,1806.38 1151.6,1808.76 1138.49,1811.4L1137.19,1811.66C1129.85,1813.15 1122.41,1814.72 1114.88,1816.37L1120.51,1815.15ZM1053.21,1483.99C1053.5,1483.32 1053.73,1482.58 1053.9,1481.76C1054,1481.27 1054.08,1480.76 1054.14,1480.22L1054.07,1480.78C1054.03,1481.12 1053.97,1481.44 1053.9,1481.76C1053.74,1482.58 1053.51,1483.32 1053.21,1483.99L1050.37,1512.51L1050.13,1514.9L1050.37,1512.51L1053.21,1483.99C1053.13,1484.17 1053.04,1484.35 1052.95,1484.52C1051.98,1486.37 1050.41,1487.65 1048.06,1488.53L1047.57,1488.7C1046.97,1488.9 1046.32,1489.08 1045.63,1489.23C1042.74,1489.89 1038.98,1490.18 1034.16,1490.28C1029.98,1490.38 1025.01,1490.33 1019.11,1490.25C1015.32,1490.2 1011.15,1490.13 1006.56,1490.09L1003.52,1489.23L1002.14,1488.83C1000.25,1488.29 998.387,1487.73 996.559,1487.16C991.581,1485.63 986.757,1484.02 982.073,1482.32C980.502,1481.76 978.949,1481.18 977.416,1480.6L975.103,1479.71L973.431,1479.05C972.087,1478.52 970.757,1477.98 969.449,1477.43C962.673,1474.62 956.251,1471.64 950.162,1468.5L952.503,1469.69C957.885,1472.4 963.532,1474.98 969.449,1477.43C970.763,1477.98 972.091,1478.52 973.431,1479.05L975.103,1479.71L977.416,1480.6C978.951,1481.18 980.503,1481.76 982.073,1482.32C986.744,1484.01 991.573,1485.63 996.559,1487.16C998.397,1487.73 1000.26,1488.29 1002.14,1488.83L1003.52,1489.23L1006.56,1490.09C1011.15,1490.13 1015.32,1490.2 1019.11,1490.25C1025.01,1490.33 1029.98,1490.38 1034.16,1490.28C1038.98,1490.18 1042.74,1489.89 1045.63,1489.23C1046.32,1489.08 1046.97,1488.9 1047.57,1488.7L1048.06,1488.53C1050.41,1487.65 1051.98,1486.37 1052.95,1484.52C1053.04,1484.35 1053.13,1484.17 1053.21,1483.99ZM1579.22,1824.72C1577.83,1823.97 1576.43,1823.24 1575.03,1822.51L1572.25,1821.07C1571.09,1820.47 1569.93,1819.87 1568.77,1819.27L1568.02,1818.9C1563.08,1816.39 1558.13,1813.94 1553.16,1811.57L1551.26,1810.65C1550.09,1810.1 1548.91,1809.55 1547.74,1809L1545.61,1808.01C1521.26,1796.71 1496.6,1787 1471.64,1778.74L1469.32,1777.98L1465.7,1776.81L1462.09,1775.66C1463.3,1776.04 1464.5,1776.42 1465.7,1776.81L1469.32,1777.98L1471.64,1778.74C1496.6,1787 1521.26,1796.71 1545.61,1808.01L1547.74,1809C1548.91,1809.55 1550.09,1810.1 1551.26,1810.65L1553.16,1811.57C1558.13,1813.94 1563.08,1816.38 1568.02,1818.9L1568.77,1819.27C1569.93,1819.87 1571.09,1820.47 1572.25,1821.07L1575.03,1822.51C1577.59,1823.85 1580.14,1825.2 1582.69,1826.57L1579.22,1824.72ZM1026.57,1821.12C1026.58,1816.19 1026.63,1811.05 1026.74,1805.7L1026.81,1802.74L1026.74,1805.7C1026.61,1812.11 1026.55,1818.2 1026.58,1824L1026.57,1821.12ZM1323.65,1800.21C1320.6,1799.5 1317.46,1798.87 1314.23,1798.31L1314.55,1798.38C1318.5,1799.22 1322.51,1800.07 1326.61,1800.93L1316.42,1798.78L1314.23,1798.31L1312.83,1798.07L1311.22,1797.82C1310.68,1797.73 1310.14,1797.65 1309.6,1797.57L1308.49,1797.41C1307.77,1797.31 1307.05,1797.21 1306.32,1797.12L1307.97,1797.34L1309.6,1797.57C1310.14,1797.65 1310.68,1797.73 1311.22,1797.82L1312.83,1798.07L1314.23,1798.31C1308.31,1797.05 1302.56,1795.81 1296.96,1794.6C1292.53,1793.64 1288.2,1792.7 1283.96,1791.77C1279.18,1790.72 1274.52,1789.69 1269.97,1788.68L1261.54,1786.78C1253.25,1784.91 1245.37,1783.11 1237.88,1781.35L1245.5,1783.12C1253.26,1784.91 1261.4,1786.76 1269.97,1788.68C1274.52,1789.69 1279.17,1790.72 1283.96,1791.77L1287.68,1792.59L1296.96,1794.6L1306.54,1796.67L1314.23,1798.31C1317.99,1798.96 1321.63,1799.71 1325.13,1800.56L1323.65,1800.21ZM1302,1796.6C1298.95,1796.27 1295.83,1795.99 1292.64,1795.77L1294.4,1795.9C1296.98,1796.1 1299.51,1796.33 1302,1796.6L1302.98,1796.71L1303.38,1796.76L1302.98,1796.71L1302,1796.6ZM1027.49,1782.59C1027.62,1779.58 1027.76,1776.53 1027.91,1773.42C1028.59,1759.55 1029.52,1744.57 1030.67,1728.46C1033.89,1683.44 1038.87,1629.59 1045.05,1566.36L1043.39,1583.37C1037.98,1639.31 1033.6,1687.53 1030.67,1728.46C1029.52,1744.57 1028.59,1759.55 1027.91,1773.42C1027.64,1778.95 1027.41,1784.32 1027.21,1789.51L1027.49,1782.59ZM1214.12,1798.91C1217.69,1798.49 1221.22,1798.09 1224.71,1797.74C1238.37,1796.33 1251.39,1795.45 1263.69,1795.18L1264.68,1795.16L1265.74,1795.14C1273.85,1795 1281.64,1795.13 1289.08,1795.55L1287.28,1795.45C1280.39,1795.11 1273.2,1795.01 1265.74,1795.14L1264.68,1795.16L1263.69,1795.18C1251.39,1795.45 1238.37,1796.33 1224.71,1797.74C1221.22,1798.1 1217.69,1798.49 1214.12,1798.91L1209.82,1799.44L1205.29,1800.03C1208.26,1799.63 1211.2,1799.26 1214.12,1798.91ZM1223.41,1777.93C1214.1,1775.7 1205.45,1773.56 1197.41,1771.52C1184.24,1768.18 1172.7,1765.08 1162.56,1762.19L1165.64,1763.06C1175.02,1765.7 1185.56,1768.51 1197.41,1771.52C1207.46,1774.08 1218.46,1776.77 1230.52,1779.62L1223.41,1777.93ZM1451.21,1772.33C1448.79,1771.61 1446.37,1770.9 1443.94,1770.21L1440.31,1769.18C1445.16,1770.54 1450.01,1771.95 1454.84,1773.42L1451.21,1772.33ZM1433.01,1767.17C1427.68,1765.74 1422.33,1764.37 1416.97,1763.06C1411.76,1761.79 1406.53,1760.57 1401.3,1759.41L1400,1759.12L1396.32,1758.32L1392.62,1757.54C1391.39,1757.29 1390.16,1757.03 1388.93,1756.78L1385.23,1756.04C1384,1755.79 1382.77,1755.55 1381.53,1755.31L1379.18,1754.86C1376.01,1754.26 1372.83,1753.67 1369.65,1753.11C1366.19,1752.5 1362.72,1751.91 1359.25,1751.34C1348.03,1749.51 1336.76,1747.93 1325.45,1746.57C1316.65,1745.52 1307.82,1744.61 1298.96,1743.84L1295.17,1743.52L1293.86,1743.41C1291.5,1743.22 1289.13,1743.04 1286.76,1742.86C1284.37,1742.69 1281.98,1742.53 1279.6,1742.37C1277.17,1742.21 1274.75,1742.07 1272.32,1741.93C1263.66,1741.44 1254.97,1741.07 1246.26,1740.83L1245.52,1740.81L1245.46,1740.81C1240.29,1740.66 1235.12,1740.57 1229.94,1740.51C1226.15,1740.47 1222.36,1740.45 1218.56,1740.45L1222.42,1740.46C1223.7,1740.46 1224.99,1740.47 1226.28,1740.48L1229.94,1740.51C1235.12,1740.57 1240.3,1740.67 1245.46,1740.81L1245.52,1740.81L1246.26,1740.83C1253.69,1741.04 1261.11,1741.33 1268.5,1741.72L1272.32,1741.93C1274.75,1742.06 1277.17,1742.21 1279.6,1742.37C1281.99,1742.52 1284.37,1742.69 1286.76,1742.86C1289.13,1743.04 1291.5,1743.22 1293.86,1743.41L1295.17,1743.52L1298.96,1743.84C1307.82,1744.61 1316.65,1745.52 1325.45,1746.57C1336.76,1747.93 1348.03,1749.51 1359.25,1751.34C1362.72,1751.91 1366.19,1752.5 1369.65,1753.11C1372.83,1753.67 1376.01,1754.26 1379.18,1754.86L1381.53,1755.31C1382.77,1755.55 1384,1755.79 1385.23,1756.04L1388.63,1756.72C1391.2,1757.24 1393.76,1757.78 1396.32,1758.32C1397.98,1758.68 1399.63,1759.04 1401.3,1759.41C1406.54,1760.57 1411.76,1761.79 1416.97,1763.06C1423.55,1764.67 1430.12,1766.37 1436.66,1768.17L1433.01,1767.17ZM1156.64,1760.48C1152.8,1759.35 1149.17,1758.26 1145.75,1757.2L1148.36,1758C1151.88,1759.08 1155.61,1760.19 1159.56,1761.33L1156.64,1760.48ZM1136.06,1754.1C1133.02,1753.1 1130.16,1752.12 1127.47,1751.17L1125.49,1750.46L1124.64,1750.16C1121.71,1749.09 1118.99,1748.06 1116.46,1747.06L1118.15,1747.72C1120.19,1748.52 1122.35,1749.33 1124.64,1750.16L1125.49,1750.46L1127.47,1751.17C1130.83,1752.36 1134.46,1753.59 1138.37,1754.86L1136.06,1754.1ZM1117.18,1745.38C1119.8,1745.13 1122.42,1744.9 1125.04,1744.67L1121.11,1745.02C1118.5,1745.25 1115.87,1745.5 1113.24,1745.75L1117.18,1745.38ZM1136.82,1743.71C1141.2,1743.37 1145.58,1743.06 1149.95,1742.77C1154.07,1742.51 1158.18,1742.26 1162.3,1742.03L1164.2,1741.93L1165.03,1741.89C1167.36,1741.77 1169.68,1741.65 1172,1741.55L1168.11,1741.73L1164.2,1741.93L1162.3,1742.03C1158.19,1742.26 1154.07,1742.5 1149.95,1742.77C1144.27,1743.14 1138.59,1743.56 1132.9,1744.02L1136.82,1743.71ZM1179.79,1741.22C1187.58,1740.92 1195.34,1740.71 1203.09,1740.58L1199.21,1740.65C1191.46,1740.81 1183.69,1741.05 1175.9,1741.38L1179.79,1741.22ZM1210.83,1740.49C1212.12,1740.48 1213.4,1740.47 1214.69,1740.46L1218.56,1740.45L1214.69,1740.46C1213.4,1740.47 1212.12,1740.48 1210.83,1740.49ZM1713.67,1512.76L1711.55,1513.13L1709.95,1513.38C1711.2,1513.19 1712.44,1512.98 1713.67,1512.76ZM1722,1510.97C1743.7,1505.55 1762.28,1494.95 1777.61,1480.78C1778.15,1480.27 1778.69,1479.76 1779.23,1479.25C1788.23,1470.65 1796.07,1460.81 1802.73,1450.06L1803.78,1448.35C1796.89,1459.77 1788.7,1470.2 1779.23,1479.25L1777.8,1480.6L1777.61,1480.78C1761.8,1495.39 1742.53,1506.2 1719.94,1511.46L1722,1510.97ZM1594.24,1490.58C1592.27,1489.62 1590.29,1488.63 1588.29,1487.6L1585.29,1486.05C1589.3,1488.15 1593.27,1490.13 1597.18,1491.99L1594.24,1490.58ZM1054.25,1475.74L1054.27,1476.45L1054.25,1475.74ZM941.132,1463.59C938.815,1462.26 936.554,1460.9 934.355,1459.53L932.631,1458.44C931.95,1458 931.269,1457.56 930.587,1457.12L930.185,1456.85C926.976,1454.74 923.89,1452.58 920.923,1450.37C917.164,1447.57 913.597,1444.69 910.219,1441.74C906.861,1438.81 903.689,1435.81 900.703,1432.75L902.213,1434.28C904.754,1436.81 907.421,1439.3 910.219,1441.74C913.596,1444.69 917.161,1447.57 920.923,1450.37C923.89,1452.58 926.976,1454.74 930.185,1456.85L930.587,1457.12C931.269,1457.56 931.95,1458 932.631,1458.44L934.355,1459.53C935.863,1460.47 937.397,1461.4 938.958,1462.32L941.132,1463.59ZM1805.8,1444.9C1806.79,1443.16 1807.76,1441.39 1808.69,1439.61L1809.61,1437.82C1808.09,1440.82 1806.48,1443.76 1804.8,1446.63L1805.8,1444.9ZM1811.4,1434.2C1812.56,1431.78 1813.68,1429.32 1814.74,1426.83L1815.52,1424.95C1813.97,1428.71 1812.3,1432.4 1810.52,1436.02L1811.4,1434.2ZM896.356,1428.11C893.136,1424.54 890.152,1420.88 887.395,1417.15L887.252,1416.95L886.73,1416.24C882.559,1410.5 878.927,1404.61 875.804,1398.59L874.932,1396.87C874.006,1395.02 873.129,1393.16 872.303,1391.29L871.716,1389.96C870.813,1387.86 869.969,1385.75 869.185,1383.62C867.505,1379.09 866.09,1374.51 864.928,1369.89L864.631,1368.7L864.506,1368.17C862.414,1359.35 861.239,1350.41 860.915,1341.43L860.861,1339.6C860.552,1326.15 862.138,1312.66 865.396,1299.41L864.962,1301.22C861.998,1313.88 860.567,1326.77 860.861,1339.6L860.915,1341.43C861.239,1350.41 862.413,1359.35 864.506,1368.17L864.631,1368.7L864.928,1369.89C866.089,1374.51 867.503,1379.09 869.185,1383.62C869.971,1385.75 870.815,1387.86 871.716,1389.96L872.303,1391.29C873.132,1393.16 874.008,1395.02 874.932,1396.87L875.804,1398.59C878.922,1404.61 882.554,1410.5 886.73,1416.24L887.252,1416.95L887.395,1417.15C890.552,1421.42 894.009,1425.6 897.775,1429.67L896.356,1428.11ZM1817.03,1421.17C1817.27,1420.54 1817.51,1419.9 1817.75,1419.27L1817.03,1421.17C1816.78,1421.8 1816.53,1422.43 1816.28,1423.07L1817.03,1421.17ZM1819.8,1413.49C1820.02,1412.84 1820.24,1412.2 1820.45,1411.55C1824.2,1400.02 1826.89,1388.04 1828.5,1375.86C1828.99,1372.16 1829.38,1368.45 1829.67,1364.73L1829.75,1363.72L1829.9,1361.49C1829.94,1360.75 1829.98,1360.01 1830.02,1359.26L1830.13,1357.03C1830.05,1358.96 1829.94,1360.88 1829.81,1362.79L1829.75,1363.72L1829.67,1364.73C1829.38,1368.45 1828.99,1372.16 1828.5,1375.86C1826.89,1388.04 1824.2,1400.02 1820.45,1411.55C1820.03,1412.85 1819.59,1414.14 1819.14,1415.43L1819.8,1413.49ZM1830.26,1352.57C1830.29,1351.09 1830.3,1349.6 1830.3,1348.11C1830.3,1350.34 1830.27,1352.57 1830.21,1354.8L1830.26,1352.57ZM1830.17,1341.42L1830.24,1343.65L1830.27,1345.09C1830.25,1343.87 1830.22,1342.65 1830.17,1341.42ZM1829.79,1334.1C1829.23,1326.18 1828.2,1318.32 1826.71,1310.59L1826.28,1308.42C1828.01,1316.85 1829.17,1325.44 1829.79,1334.1C1829.85,1335.06 1829.91,1336.02 1829.97,1336.98L1829.83,1334.75L1829.79,1334.1ZM1825.75,1305.94L1825.35,1304.12L1824.84,1301.98C1825.16,1303.3 1825.46,1304.62 1825.75,1305.94ZM1823.76,1297.73C1821.08,1287.68 1817.56,1277.95 1813.19,1268.7C1811.73,1265.6 1810.17,1262.55 1808.51,1259.56C1810.17,1262.55 1811.73,1265.6 1813.19,1268.7C1817.87,1278.6 1821.57,1289.06 1824.31,1299.85L1823.76,1297.73ZM866.326,1295.81C866.813,1294 867.329,1292.21 867.874,1290.43C868.478,1288.45 869.118,1286.49 869.798,1284.52C872.738,1276 876.358,1267.65 880.595,1259.56L881.573,1257.71L881.631,1257.6C886.946,1247.73 893.181,1238.24 900.218,1229.3L898.902,1230.99C892.401,1239.43 886.612,1248.35 881.631,1257.6L881.573,1257.71L880.595,1259.56C876.684,1267.03 873.298,1274.72 870.488,1282.56L869.798,1284.52C869.118,1286.49 868.478,1288.45 867.874,1290.43C867.144,1292.82 866.468,1295.21 865.851,1297.61L866.326,1295.81ZM1801.78,1248.54C1794.23,1237.33 1785.16,1227.22 1774.54,1218.64L1772.85,1217.3C1784.2,1226.16 1793.83,1236.73 1801.78,1248.54ZM902.905,1225.96C910.167,1217.13 918.226,1208.88 926.971,1201.36L927.304,1201.08C932.5,1196.63 937.935,1192.44 943.58,1188.56C945.739,1187.07 947.929,1185.62 950.151,1184.22C952.404,1182.8 954.688,1181.43 957.003,1180.1L958.895,1179.03C959.526,1178.68 960.16,1178.33 960.8,1177.99L962.718,1176.96C963.358,1176.62 963.999,1176.29 964.648,1175.96L962.718,1176.96L960.8,1177.99C960.163,1178.33 959.527,1178.68 958.895,1179.03L957.003,1180.1C954.687,1181.43 952.401,1182.8 950.151,1184.22C947.93,1185.62 945.74,1187.07 943.58,1188.56C937.933,1192.44 932.501,1196.63 927.304,1201.08L926.971,1201.36C917.683,1209.35 909.163,1218.17 901.552,1227.62L902.905,1225.96ZM1765.82,1212.18C1764.61,1211.37 1763.39,1210.57 1762.15,1209.79C1764.01,1210.96 1765.83,1212.17 1767.62,1213.42L1765.82,1212.18ZM1756.44,1206.41C1757.72,1207.12 1758.99,1207.86 1760.24,1208.62L1758.37,1207.51L1756.44,1206.41ZM1752.33,1204.21C1750.39,1203.22 1748.42,1202.27 1746.4,1201.36L1744.32,1200.44L1743.17,1199.96C1739.22,1198.3 1735.13,1196.81 1730.91,1195.5L1728.98,1194.92L1727.25,1194.42C1725.52,1193.93 1723.78,1193.48 1722.01,1193.05L1719.63,1192.5C1722.22,1193.08 1724.76,1193.72 1727.25,1194.42L1728.98,1194.92L1730.91,1195.5C1735.13,1196.81 1739.21,1198.3 1743.17,1199.96L1744.32,1200.44L1746.41,1201.36C1748.42,1202.27 1750.39,1203.21 1752.33,1204.21C1753.06,1204.58 1753.78,1204.96 1754.49,1205.34L1752.51,1204.3L1752.33,1204.21ZM1716.97,1191.93C1714.63,1191.45 1712.26,1191.02 1709.86,1190.65L1707.35,1190.28C1710.62,1190.73 1713.83,1191.29 1716.97,1191.93ZM1707.5,1186.64L1707.46,1187.85L1707.45,1188.19C1707.47,1187.67 1707.49,1187.15 1707.5,1186.64ZM1707.54,1184.22C1707.55,1183.42 1707.55,1182.62 1707.54,1181.82C1707.55,1183.02 1707.55,1184.22 1707.53,1185.43L1707.54,1184.22ZM1707.42,1177.99C1707.37,1176.89 1707.31,1175.79 1707.23,1174.7L1707.31,1175.88C1707.33,1176.28 1707.36,1176.67 1707.38,1177.06L1707.42,1177.99ZM966.591,1174.98C971.788,1172.39 977.116,1170.05 982.556,1167.97L984.602,1167.2L986.313,1166.59C987.386,1166.2 988.463,1165.83 989.542,1165.47C991.347,1164.87 993.163,1164.29 994.989,1163.74L992.891,1164.38C991.769,1164.73 990.652,1165.1 989.542,1165.47C988.461,1165.83 987.385,1166.2 986.313,1166.59L984.602,1167.2L982.556,1167.97C977.795,1169.79 973.122,1171.81 968.545,1174.02L966.591,1174.98ZM1707.03,1172.36C1706.89,1170.8 1706.71,1169.25 1706.5,1167.7L1706.34,1166.55C1706.67,1168.85 1706.94,1171.18 1707.14,1173.53L1707.03,1172.36ZM1705.98,1164.26L1706.17,1165.4L1705.98,1164.26ZM1000.7,1162.15C1003.75,1161.35 1006.83,1160.63 1009.94,1160L1007.78,1160.45C1005.4,1160.97 1003.04,1161.53 1000.7,1162.15ZM1082.78,1161.47C1078.07,1160.33 1073.38,1159.39 1068.7,1158.66L1066.37,1158.32C1065.6,1158.21 1064.82,1158.11 1064.04,1158L1061.72,1157.72C1063.27,1157.9 1064.82,1158.1 1066.37,1158.32L1068.7,1158.66C1074.15,1159.51 1079.63,1160.64 1085.13,1162.06L1082.78,1161.47ZM1704.9,1158.58C1705.06,1159.33 1705.22,1160.09 1705.37,1160.84L1705.14,1159.71L1704.9,1158.58ZM1019.73,1158.32C1026.73,1157.32 1033.84,1156.76 1041.05,1156.68L1038.78,1156.72C1032.35,1156.88 1026,1157.42 1019.73,1158.32L1018.68,1158.46L1016.48,1158.81C1017.56,1158.63 1018.64,1158.47 1019.73,1158.32ZM1704.12,1155.23C1704.3,1155.97 1704.48,1156.71 1704.65,1157.46L1704.39,1156.34L1704.12,1155.23ZM1057.09,1157.26C1053.24,1156.93 1049.4,1156.74 1045.6,1156.68L1043.32,1156.66C1047.12,1156.67 1050.94,1156.81 1054.78,1157.08L1057.09,1157.26L1059.4,1157.48C1058.63,1157.4 1057.86,1157.33 1057.09,1157.26ZM1703.24,1151.9C1702.11,1147.87 1700.76,1143.92 1699.22,1140.07C1700.9,1144.27 1702.35,1148.59 1703.54,1153.01L1703.24,1151.9ZM1087.49,1162.69L1087.49,1162.69C1092.3,1145.72 1097.73,1130.14 1103.71,1115.85L1104.71,1113.48C1098.33,1128.42 1092.56,1144.78 1087.49,1162.69L1087.49,1162.69ZM1107.77,1106.52L1106.74,1108.82L1107.77,1106.52ZM1695.94,1132.65C1686.66,1113.38 1672.29,1096.76 1654.65,1084.01C1672.3,1096.77 1686.66,1113.38 1695.94,1132.65C1696.46,1133.72 1696.97,1134.81 1697.45,1135.9L1696.52,1133.84L1695.94,1132.65ZM1489.62,1079.21C1490.38,1078.74 1491.15,1078.28 1491.92,1077.82C1491.15,1078.27 1490.38,1078.74 1489.62,1079.21L1488.47,1079.92C1488.4,1079.57 1488.32,1079.21 1488.24,1078.85L1488.47,1079.92L1489.62,1079.21ZM1494.23,1076.48C1495.21,1075.92 1496.18,1075.38 1497.16,1074.85C1499.03,1073.84 1500.9,1072.88 1502.78,1071.95C1503.82,1071.44 1504.87,1070.94 1505.91,1070.46L1504.73,1071.01C1504.34,1071.19 1503.95,1071.38 1503.56,1071.57L1502.78,1071.95C1500.9,1072.87 1499.03,1073.84 1497.16,1074.85L1496.56,1075.18C1495.39,1075.82 1494.23,1076.47 1493.08,1077.14L1494.23,1076.48ZM1485.57,1071.13C1485.4,1070.75 1485.22,1070.37 1485.05,1069.99L1484.48,1068.84C1485.06,1069.99 1485.59,1071.13 1486.07,1072.26L1485.57,1071.13ZM1508.26,1069.39C1508.68,1069.2 1509.09,1069.02 1509.51,1068.84L1511.8,1067.87L1514.16,1066.91C1513.05,1067.35 1511.95,1067.8 1510.85,1068.27L1509.51,1068.84C1508.7,1069.19 1507.89,1069.55 1507.08,1069.92L1508.26,1069.39ZM1483.88,1067.68C1481.26,1062.78 1477.69,1057.68 1473.28,1052.51C1472.49,1051.58 1471.67,1050.65 1470.83,1049.72L1469.7,1048.5C1470.95,1049.84 1472.14,1051.17 1473.28,1052.51C1477.35,1057.27 1480.69,1061.97 1483.25,1066.52L1483.88,1067.68ZM1521.27,1064.3C1522.07,1064.03 1522.86,1063.77 1523.65,1063.52L1526.03,1062.77L1523.65,1063.52C1522.07,1064.02 1520.48,1064.56 1518.9,1065.13L1521.27,1064.3ZM1650.87,1081.38C1645.78,1077.94 1640.43,1074.82 1634.88,1072.03C1633.55,1071.37 1632.21,1070.72 1630.85,1070.09L1628.81,1069.17L1628.13,1068.87C1617.55,1064.22 1606.31,1060.78 1594.66,1058.71C1593.16,1058.44 1591.66,1058.2 1590.16,1057.98C1572.51,1055.4 1554.03,1055.96 1535.57,1060.23C1533.5,1060.71 1531.43,1061.24 1529.36,1061.81L1530.8,1061.42C1531.59,1061.21 1532.39,1061.01 1533.18,1060.8L1535.57,1060.23C1554.03,1055.95 1572.51,1055.4 1590.16,1057.98C1591.66,1058.2 1593.16,1058.44 1594.66,1058.71C1606.31,1060.78 1617.55,1064.22 1628.13,1068.87L1628.81,1069.17L1630.62,1069.99C1632.05,1070.65 1633.47,1071.33 1634.88,1072.03C1641.12,1075.16 1647.11,1078.73 1652.77,1082.68L1650.87,1081.38ZM1108.81,1104.25C1109.94,1101.82 1111.08,1099.43 1112.24,1097.07C1116.11,1089.22 1120.15,1081.83 1124.37,1074.85L1124.78,1074.18C1132.1,1062.16 1139.91,1051.43 1148.13,1041.9C1139.91,1051.43 1132.1,1062.16 1124.78,1074.18L1124.37,1074.85C1120.16,1081.82 1116.11,1089.22 1112.24,1097.07C1111.44,1098.69 1110.65,1100.34 1109.86,1102L1108.81,1104.25ZM1466.14,1044.81C1465.17,1043.84 1464.17,1042.87 1463.13,1041.9L1462.32,1041.13L1460.99,1039.9C1461.72,1040.57 1462.43,1041.23 1463.13,1041.9C1464.6,1043.28 1466,1044.66 1467.36,1046.04L1466.14,1044.81ZM1456.47,1035.93C1453.72,1033.59 1450.83,1031.26 1447.8,1028.96L1446.21,1027.76C1449.82,1030.45 1453.25,1033.18 1456.47,1035.93ZM1444.15,1026.25C1438.96,1022.48 1433.41,1018.78 1427.53,1015.21L1427.11,1014.96L1427.53,1015.21C1433.41,1018.78 1438.96,1022.48 1444.15,1026.25ZM1422.79,1012.4C1421.71,1011.78 1420.61,1011.15 1419.51,1010.53L1421.44,1011.62L1422.79,1012.4C1423.61,1012.88 1424.43,1013.36 1425.24,1013.84L1423.35,1012.73L1422.79,1012.4ZM1150.78,1038.87C1169.03,1018.47 1189.19,1003.78 1210.32,993.743C1188.68,1004.02 1168.05,1019.19 1149.45,1040.37L1150.78,1038.87ZM1216.53,990.938L1214.97,991.615L1216.53,990.938ZM1414.09,1007.58C1412.27,1006.62 1410.42,1005.66 1408.55,1004.73C1405.9,1003.4 1403.21,1002.1 1400.47,1000.83C1392.29,997.054 1383.74,993.577 1374.9,990.494L1372.61,989.706C1382.27,992.979 1391.59,996.727 1400.47,1000.83C1403.21,1002.1 1405.9,1003.4 1408.55,1004.73C1410.42,1005.66 1412.26,1006.62 1414.09,1007.58C1415.26,1008.2 1416.41,1008.83 1417.56,1009.45L1415.59,1008.38L1414.09,1007.58ZM1220.41,989.327C1222.03,988.676 1223.66,988.052 1225.29,987.453C1227.08,986.795 1228.87,986.168 1230.67,985.57L1232.25,985.052L1233.84,984.549L1235.43,984.062C1234.84,984.238 1234.26,984.418 1233.67,984.602L1232.25,985.052L1230.67,985.57C1228.87,986.166 1227.08,986.793 1225.29,987.453C1223.66,988.052 1222.03,988.677 1220.41,989.327L1219.65,989.634L1218.66,990.042L1219.65,989.634L1220.41,989.327ZM1370.31,988.937C1368.21,988.245 1366.09,987.577 1363.95,986.932C1362.41,986.465 1360.86,986.01 1359.31,985.57C1353.56,983.939 1347.71,982.486 1341.79,981.23C1347.71,982.483 1353.56,983.936 1359.31,985.57C1360.87,986.012 1362.42,986.466 1363.95,986.932C1365.31,987.341 1366.65,987.759 1367.99,988.185L1370.31,988.937ZM1237.02,983.589C1239.11,982.979 1241.2,982.408 1243.3,981.876C1244.4,981.597 1245.5,981.328 1246.6,981.069L1248.2,980.701L1248.85,980.558C1251.31,980.011 1253.77,979.517 1256.24,979.072C1257.08,978.92 1257.93,978.773 1258.78,978.632L1256.24,979.072C1253.77,979.517 1251.31,980.011 1248.85,980.558L1248.2,980.701L1246.6,981.069C1245.5,981.328 1244.4,981.596 1243.3,981.876C1241.73,982.273 1240.17,982.692 1238.61,983.132L1237.02,983.589ZM1274.03,976.7C1272.36,976.847 1270.68,977.014 1269.01,977.204L1271.49,976.939L1274.03,976.7ZM1331.99,979.352L1329.52,978.942C1328.69,978.813 1327.87,978.684 1327.04,978.555L1324.78,978.226C1322.96,977.969 1321.14,977.732 1319.31,977.516C1315.37,977.05 1311.4,976.68 1307.42,976.414L1307.02,976.385L1305.88,976.317C1296.17,975.729 1286.37,975.757 1276.58,976.493L1279.12,976.317C1288.07,975.756 1297,975.778 1305.88,976.317L1307.02,976.385L1307.42,976.414C1311.4,976.681 1315.37,977.051 1319.31,977.516C1321.14,977.733 1322.96,977.97 1324.78,978.226L1327.04,978.555C1327.87,978.684 1328.69,978.813 1329.52,978.942L1330.75,979.146C1331.99,979.351 1333.21,979.565 1334.45,979.786L1331.99,979.352Z"/>
    </g>
    <g transform="matrix(0.189681,0,0,0.203529,-155.478,-188.493)">
        <path d="M1127.96,1285.92C1056.55,1079.91 1343.83,921.822 1455.36,1116.7C1413.72,1183.21 1436.28,1242.11 1482.95,1284.08C1417.4,1148.75 1593.83,1025.69 1685.27,1182.92L1637.45,1197.63C1889.07,1237.46 1775.49,1535.57 1569.4,1434.91L1560.2,1780.7C1356.54,1714.99 1243.84,1716.32 1133.48,1743.91C1246.5,1751.35 1287.2,1775.09 1326.61,1797.25C1355.52,1841.09 1225.2,1796.86 1069.1,1786.22L1050.71,1453.3C1040.81,1479.14 1008.56,1486.78 992.423,1474.84C799.669,1332.09 928.451,1168.11 1085.65,1206.83C1097.74,1257.41 1110.97,1294.26 1127.96,1285.92Z" style="fill:rgb(245,218,182);"/>
        <path d="M1243.54,1808.59C1247.72,1809.24 1251.78,1809.87 1255.72,1810.47L1261.05,1811.27C1262.87,1811.53 1264.7,1811.8 1266.53,1812.06L1271.29,1812.73C1275.18,1813.27 1278.92,1813.76 1282.49,1814.19L1284.19,1814.39L1285.98,1814.6C1287.69,1814.79 1289.37,1814.97 1291,1815.14L1294,1815.42L1295.11,1815.52C1300.34,1815.98 1305.05,1816.24 1309.21,1816.27L1309.72,1816.27L1309.21,1816.27C1305.05,1816.24 1300.34,1815.98 1295.11,1815.52L1294,1815.42L1291,1815.14C1289.37,1814.97 1287.69,1814.79 1285.98,1814.6L1284.19,1814.39L1282.49,1814.19C1278.92,1813.76 1275.18,1813.27 1271.29,1812.73L1266.53,1812.06C1264.7,1811.8 1262.87,1811.53 1261.05,1811.27L1255.72,1810.47C1253.7,1810.16 1251.64,1809.85 1249.55,1809.52L1243.54,1808.59ZM1631.83,1454.3C1633.62,1454.53 1635.4,1454.72 1637.16,1454.89L1639.33,1455.07C1646.45,1455.63 1653.37,1455.69 1660.08,1455.29L1660.37,1455.28L1661.08,1455.23C1663.55,1455.06 1666,1454.84 1668.41,1454.55C1671.22,1454.21 1673.99,1453.8 1676.71,1453.3C1679.77,1452.74 1682.78,1452.09 1685.72,1451.34L1687.57,1450.86C1684.03,1451.81 1680.41,1452.63 1676.71,1453.3C1673.99,1453.8 1671.22,1454.21 1668.41,1454.55C1666,1454.84 1663.55,1455.07 1661.08,1455.23L1660.37,1455.28L1660.08,1455.29C1653.37,1455.69 1646.45,1455.63 1639.33,1455.07C1636.86,1454.88 1634.36,1454.62 1631.83,1454.3C1630.68,1454.15 1629.52,1454 1628.36,1453.83L1630.58,1454.14L1631.83,1454.3ZM1480.73,1279.29C1481.2,1280.36 1481.68,1281.42 1482.18,1282.49L1481.44,1280.89L1480.73,1279.29ZM1314.34,1816.16C1319.8,1815.89 1323.98,1815.06 1326.74,1813.54L1327.08,1813.35C1327.24,1813.25 1327.4,1813.15 1327.56,1813.05L1328,1812.73C1328.14,1812.62 1328.27,1812.51 1328.41,1812.4L1328.77,1812.06C1329.13,1811.7 1329.45,1811.31 1329.71,1810.89L1329.95,1810.47C1330.25,1809.89 1330.45,1809.27 1330.56,1808.61L1330.46,1809.1C1330.34,1809.58 1330.17,1810.04 1329.95,1810.47L1329.71,1810.89C1329.45,1811.31 1329.14,1811.7 1328.77,1812.06L1328.41,1812.4C1328.27,1812.51 1328.14,1812.62 1328,1812.73L1327.56,1813.05C1327.4,1813.15 1327.24,1813.25 1327.08,1813.35L1326.74,1813.54C1323.98,1815.06 1319.8,1815.89 1314.34,1816.16ZM1230,1806.45C1223.62,1805.44 1217.02,1804.39 1210.2,1803.32L1204.12,1802.37L1197.04,1801.27C1201.51,1801.96 1205.9,1802.64 1210.2,1803.32C1217.02,1804.39 1223.62,1805.44 1230,1806.45ZM1330.64,1807.02C1330.62,1806.64 1330.58,1806.26 1330.51,1805.86C1330.61,1806.46 1330.66,1807.03 1330.65,1807.57L1330.64,1807.02ZM1189.83,1800.17C1175.28,1797.97 1159.97,1795.77 1144.07,1793.73L1144.04,1793.73L1137.95,1792.96C1129.29,1791.89 1120.46,1790.86 1111.49,1789.92L1107.33,1789.49L1103.15,1789.07L1098.95,1788.66C1093.34,1788.13 1087.68,1787.63 1081.98,1787.17L1077.7,1786.84C1076.28,1786.73 1074.85,1786.62 1073.41,1786.52L1069.1,1786.22C1071.98,1786.41 1074.86,1786.62 1077.7,1786.84L1081.98,1787.17C1086.26,1787.52 1090.51,1787.88 1094.73,1788.27L1098.95,1788.66C1101.67,1788.92 1104.39,1789.19 1107.1,1789.46C1108.57,1789.61 1110.03,1789.77 1111.49,1789.92C1120.45,1790.86 1129.28,1791.88 1137.95,1792.96L1144.04,1793.73L1144.07,1793.73C1157.32,1795.43 1170.15,1797.24 1182.48,1799.07L1189.83,1800.17ZM1008.34,1480.26C1013.04,1480.56 1017.99,1480 1022.83,1478.57L1023.34,1478.41L1024.49,1478.04L1025.63,1477.64C1025.03,1477.86 1024.42,1478.07 1023.81,1478.26L1023.34,1478.41L1022.83,1478.57C1017.6,1480.11 1012.25,1480.65 1007.23,1480.17L1008.34,1480.26ZM1330.18,1804.44C1329.91,1803.48 1329.51,1802.46 1328.97,1801.36C1328.79,1800.97 1328.59,1800.58 1328.36,1800.17L1328.1,1799.69L1327.74,1799.07C1327.4,1798.48 1327.02,1797.88 1326.61,1797.25L1321.99,1794.65C1313.29,1789.77 1304.4,1784.84 1294.56,1780.06C1291.79,1778.71 1288.94,1777.38 1286,1776.06C1272.97,1770.2 1258.12,1764.66 1240,1759.8C1238.07,1759.29 1236.1,1758.78 1234.1,1758.27L1231.65,1757.67C1230.83,1757.47 1230.01,1757.27 1229.18,1757.08L1231.65,1757.67L1234.1,1758.27C1236.1,1758.78 1238.07,1759.29 1240,1759.8C1258.12,1764.66 1272.97,1770.21 1286,1776.06C1288.94,1777.38 1291.79,1778.72 1294.56,1780.06C1304.4,1784.84 1313.29,1789.77 1321.99,1794.65L1326.61,1797.25C1327.02,1797.88 1327.4,1798.48 1327.74,1799.07L1328.1,1799.69L1328.36,1800.17C1328.58,1800.58 1328.79,1800.97 1328.97,1801.36C1329.51,1802.46 1329.91,1803.49 1330.18,1804.44L1330.24,1804.63L1330.35,1805.08L1330.24,1804.63L1330.18,1804.44ZM1550.45,1777.58C1545.6,1776.05 1540.81,1774.55 1536.08,1773.1C1532.69,1772.06 1529.34,1771.04 1526.01,1770.04C1517.2,1767.39 1508.57,1764.88 1500.11,1762.5C1495.33,1761.15 1490.6,1759.85 1485.94,1758.58L1484.79,1758.27C1482.25,1757.59 1479.73,1756.92 1477.23,1756.26L1481.57,1757.41L1485.94,1758.58C1490.61,1759.85 1495.33,1761.15 1500.11,1762.5C1508.57,1764.88 1517.2,1767.39 1526.01,1770.04L1526.66,1770.24C1528.23,1770.71 1529.79,1771.18 1531.35,1771.65L1536.08,1773.1C1539.24,1774.07 1542.42,1775.06 1545.62,1776.06L1550.45,1777.58ZM1224.1,1755.92C1220.66,1755.15 1217.12,1754.41 1213.46,1753.7L1216.18,1754.24C1219.79,1754.97 1223.27,1755.72 1226.66,1756.49L1224.1,1755.92ZM1203.68,1751.9C1197.95,1750.91 1191.96,1749.97 1185.68,1749.1C1182.57,1748.67 1179.38,1748.25 1176.12,1747.85C1172.03,1747.35 1167.83,1746.88 1163.5,1746.43L1159.95,1746.07L1158.45,1745.93C1156.33,1745.72 1154.19,1745.52 1152.01,1745.33C1148.53,1745.03 1144.97,1744.74 1141.33,1744.46L1145.17,1744.76C1147.48,1744.94 1149.76,1745.13 1152.01,1745.33C1154.19,1745.52 1156.33,1745.72 1158.45,1745.93L1159.95,1746.07L1163.5,1746.43C1167.83,1746.88 1172.03,1747.35 1176.12,1747.85C1179.38,1748.25 1182.56,1748.67 1185.68,1749.1C1191.96,1749.97 1197.95,1750.9 1203.68,1751.9L1205.02,1752.13L1206.71,1752.43L1205.02,1752.13L1203.68,1751.9ZM1133.48,1743.91C1138.5,1742.66 1143.53,1741.45 1148.57,1740.31L1143.53,1741.48C1141.85,1741.87 1140.18,1742.27 1138.5,1742.67L1133.48,1743.91ZM1179.04,1734.18L1179.17,1734.16C1187.97,1732.63 1196.86,1731.29 1205.88,1730.16L1207.6,1729.95L1210.09,1729.65C1212.78,1729.34 1215.48,1729.04 1218.19,1728.77L1215.53,1729.05C1213.71,1729.24 1211.9,1729.44 1210.09,1729.65L1207.6,1729.95L1205.88,1730.16C1196.86,1731.29 1187.97,1732.63 1179.17,1734.16L1179.04,1734.18L1176.48,1734.64L1179.04,1734.18ZM1223.54,1728.25C1224.49,1728.16 1225.45,1728.08 1226.41,1728C1228.14,1727.85 1229.88,1727.71 1231.62,1727.58L1228.92,1727.79L1226.41,1728C1224.55,1728.16 1222.7,1728.33 1220.86,1728.5L1223.54,1728.25ZM1472.07,1754.91C1448.07,1748.7 1425.48,1743.6 1404.08,1739.5C1402.81,1739.26 1401.54,1739.02 1400.28,1738.78C1382.56,1735.47 1365.67,1732.85 1349.46,1730.87L1346,1730.46C1341.4,1729.92 1336.85,1729.43 1332.36,1728.99L1329,1728.67C1323.04,1728.12 1317.16,1727.66 1311.37,1727.29C1309.58,1727.17 1307.79,1727.06 1306.01,1726.96L1302.98,1726.8L1299.97,1726.65C1292.95,1726.33 1286.05,1726.13 1279.27,1726.05L1282.18,1726.09C1289,1726.2 1295.93,1726.44 1302.98,1726.8L1306.01,1726.96C1307.79,1727.06 1309.58,1727.17 1311.37,1727.29C1317.16,1727.66 1323.03,1728.13 1329,1728.67L1332.36,1728.99C1336.85,1729.43 1341.39,1729.92 1346,1730.46L1349.46,1730.87C1365.66,1732.85 1382.56,1735.47 1400.28,1738.78L1404.08,1739.5C1425.48,1743.6 1448.06,1748.7 1472.07,1754.91ZM1237.06,1727.19C1238.15,1727.12 1239.25,1727.05 1240.35,1726.98L1242.54,1726.86L1244.9,1726.73C1253.31,1726.3 1261.87,1726.06 1270.61,1726.02C1272.52,1726.02 1274.44,1726.02 1276.37,1726.03L1273.48,1726.02L1270.61,1726.02C1261.87,1726.06 1253.31,1726.3 1244.9,1726.73L1242.54,1726.86L1240.35,1726.98C1238.34,1727.1 1236.34,1727.24 1234.34,1727.38L1237.06,1727.19ZM1005.03,1479.9C1003.66,1479.68 1002.33,1479.38 1001.03,1479.01C1000.27,1478.79 999.519,1478.54 998.784,1478.26L997.807,1477.88C998.848,1478.31 999.925,1478.69 1001.03,1479.01C1002.67,1479.48 1004.37,1479.83 1006.12,1480.05L1005.03,1479.9ZM995.916,1477C995.301,1476.68 994.701,1476.34 994.118,1475.98L993.257,1475.43C994.387,1476.19 995.589,1476.87 996.85,1477.45L995.916,1477ZM1029.61,1475.95L1030.05,1475.74C1031.77,1474.89 1033.44,1473.92 1035.06,1472.84L1035.93,1472.24C1034.05,1473.57 1032.08,1474.74 1030.05,1475.74L1029.61,1475.95L1028.67,1476.39L1028.41,1476.51L1028.67,1476.39L1029.61,1475.95ZM989.963,1473C980.247,1465.69 971.369,1458.33 963.298,1450.95L961.668,1449.45C970.179,1457.34 979.594,1465.2 989.963,1473ZM1037.63,1470.97C1037.91,1470.75 1038.19,1470.53 1038.46,1470.3L1039.28,1469.61L1039.77,1469.17C1040.67,1468.36 1041.55,1467.51 1042.39,1466.62L1043.12,1465.81C1043.6,1465.27 1044.07,1464.71 1044.53,1464.13L1043.83,1464.98C1043.6,1465.26 1043.36,1465.54 1043.12,1465.81L1042.39,1466.62C1041.55,1467.51 1040.67,1468.37 1039.77,1469.17L1039.28,1469.61L1038.46,1470.3C1037.92,1470.75 1037.36,1471.19 1036.79,1471.61L1037.63,1470.97ZM1046.49,1461.45L1045.86,1462.37L1045.2,1463.26C1045.65,1462.67 1046.08,1462.07 1046.49,1461.45ZM1050.27,1454.4L1049.81,1455.47C1049.64,1455.82 1049.48,1456.17 1049.31,1456.52L1049.01,1457.13C1048.42,1458.3 1047.78,1459.42 1047.1,1460.51L1047.69,1459.55C1048.15,1458.76 1048.6,1457.96 1049.01,1457.13L1049.31,1456.52C1049.48,1456.17 1049.64,1455.82 1049.81,1455.47L1050.02,1454.97C1050.26,1454.42 1050.49,1453.87 1050.71,1453.3L1050.27,1454.4ZM1622.6,1452.87C1620.24,1452.44 1617.86,1451.96 1615.47,1451.42L1614.81,1451.27L1613.06,1450.86C1611.68,1450.53 1610.3,1450.18 1608.92,1449.81C1603.52,1448.39 1598.04,1446.69 1592.47,1444.69L1591.35,1444.29L1589.14,1443.46C1588.28,1443.13 1587.41,1442.8 1586.54,1442.46L1584.12,1441.49C1585.8,1442.17 1587.47,1442.83 1589.14,1443.46L1591.35,1444.29L1592.47,1444.69C1598.04,1446.68 1603.53,1448.39 1608.92,1449.81C1610.31,1450.18 1611.69,1450.53 1613.06,1450.86L1614.81,1451.27L1615.47,1451.42C1617.87,1451.96 1620.25,1452.44 1622.6,1452.87C1623.78,1453.09 1624.96,1453.29 1626.13,1453.48L1623.88,1453.11L1622.6,1452.87ZM1693.04,1449.25C1697.56,1447.82 1701.95,1446.16 1706.18,1444.29L1706.95,1443.94L1708.03,1443.45C1713.75,1440.81 1719.19,1437.79 1724.33,1434.43C1729.88,1430.8 1735.08,1426.77 1739.91,1422.4C1743.79,1418.9 1747.43,1415.17 1750.81,1411.26C1747.42,1415.17 1743.79,1418.9 1739.91,1422.4C1735.08,1426.77 1729.88,1430.8 1724.33,1434.43C1719.19,1437.79 1713.75,1440.81 1708.03,1443.45L1706.95,1443.94L1706.18,1444.29C1701.38,1446.4 1696.4,1448.25 1691.23,1449.81L1693.04,1449.25ZM959.58,1447.5C957.776,1445.8 956.014,1444.1 954.294,1442.39C948.374,1436.53 942.946,1430.66 937.993,1424.8L937.238,1423.9L935.99,1422.4L934.763,1420.9L933.557,1419.4C934.125,1420.11 934.699,1420.83 935.282,1421.54L935.99,1422.4L937.238,1423.9L937.993,1424.8C942.948,1430.66 948.375,1436.53 954.294,1442.39C956.014,1444.09 957.775,1445.8 959.58,1447.5ZM1579.25,1439.45C1576.81,1438.39 1574.35,1437.28 1571.87,1436.1L1569.4,1434.91C1573.54,1436.93 1577.64,1438.79 1581.69,1440.49L1579.25,1439.45ZM932.175,1417.65C927.161,1411.23 922.704,1404.83 918.775,1398.46C918.285,1397.67 917.804,1396.87 917.336,1396.09C916.625,1394.89 915.932,1393.7 915.259,1392.52C912.737,1388.07 910.474,1383.65 908.46,1379.25L907.797,1377.78C905.838,1373.39 904.126,1369.02 902.655,1364.7L902.174,1363.26C903.75,1368.06 905.62,1372.9 907.797,1377.78L908.46,1379.25C910.25,1383.16 912.238,1387.09 914.428,1391.04L915.259,1392.52C915.933,1393.71 916.624,1394.9 917.336,1396.09C917.808,1396.88 918.289,1397.67 918.775,1398.46C922.701,1404.83 927.159,1411.23 932.175,1417.65ZM1754.13,1407.26L1755.2,1405.9L1754.13,1407.26L1753.34,1408.24L1754.13,1407.26ZM1757.28,1403.14C1757.95,1402.21 1758.62,1401.27 1759.27,1400.33C1762.64,1395.46 1765.65,1390.38 1768.29,1385.13L1768.82,1384.06L1768.86,1383.98C1770.1,1381.46 1771.25,1378.91 1772.31,1376.32C1772.53,1375.78 1772.75,1375.24 1772.96,1374.7L1772.33,1376.28L1772.31,1376.32C1771.25,1378.91 1770.1,1381.46 1768.86,1383.98L1768.82,1384.06L1768.06,1385.59C1765.47,1390.68 1762.54,1395.6 1759.27,1400.33C1758.3,1401.74 1757.29,1403.14 1756.25,1404.53L1757.28,1403.14ZM1773.59,1373.06C1774.8,1369.89 1775.87,1366.67 1776.8,1363.43C1787.2,1327.35 1781.14,1286.94 1753.51,1254.56L1752.31,1253.18C1780.97,1285.79 1787.35,1326.84 1776.8,1363.43C1775.87,1366.67 1774.8,1369.89 1773.59,1373.06ZM901.687,1361.74C901.392,1360.81 901.108,1359.88 900.834,1358.95L900.423,1357.52C898.576,1350.96 897.277,1344.5 896.494,1338.16C896.366,1337.12 896.252,1336.09 896.149,1335.05L896.292,1336.43C896.345,1336.89 896.398,1337.35 896.451,1337.81L896.494,1338.16C897.278,1344.5 898.577,1350.96 900.423,1357.52L900.834,1358.95C901.107,1359.88 901.391,1360.81 901.687,1361.74ZM895.874,1331.74C895.722,1329.57 895.631,1327.42 895.599,1325.29C895.586,1324.47 895.582,1323.64 895.587,1322.83L895.603,1321.49C895.663,1318.1 895.872,1314.76 896.227,1311.46C896.338,1310.42 896.464,1309.39 896.602,1308.36L896.785,1307.07C897.544,1301.92 898.654,1296.91 900.094,1292.03C900.638,1290.18 901.23,1288.35 901.871,1286.54C902.823,1283.85 903.877,1281.2 905.03,1278.59L905.683,1277.14C904.271,1280.21 902.997,1283.35 901.871,1286.54C901.23,1288.35 900.638,1290.18 900.094,1292.03C898.532,1297.32 897.359,1302.77 896.602,1308.36C896.462,1309.39 896.336,1310.43 896.227,1311.46C895.828,1315.2 895.612,1318.99 895.587,1322.83C895.581,1323.64 895.585,1324.46 895.599,1325.29C895.63,1327.42 895.721,1329.57 895.874,1331.74ZM1479.54,1280.94C1480.66,1282 1481.8,1283.05 1482.95,1284.08L1481.8,1283.04C1481.04,1282.35 1480.29,1281.65 1479.54,1280.94ZM1126.4,1281.26C1125.9,1279.71 1125.42,1278.15 1124.96,1276.62L1124.29,1274.3C1125.17,1277.38 1126.12,1280.48 1127.16,1283.59L1126.4,1281.26ZM1479.36,1276.11C1479.06,1275.4 1478.77,1274.68 1478.49,1273.98C1477.82,1272.29 1477.18,1270.6 1476.58,1268.92C1475.74,1266.56 1474.96,1264.2 1474.26,1261.86C1474.96,1264.21 1475.73,1266.56 1476.58,1268.92C1477.18,1270.61 1477.82,1272.29 1478.49,1273.98C1478.98,1275.22 1479.5,1276.46 1480.03,1277.7L1479.36,1276.11ZM1127.96,1285.92C1127.75,1286.02 1127.55,1286.12 1127.35,1286.2L1127.21,1286.26L1127.15,1286.29C1126.92,1286.38 1126.69,1286.47 1126.46,1286.54L1126.09,1286.66C1125.74,1286.77 1125.38,1286.86 1125.04,1286.92C1124.53,1287.02 1124.02,1287.08 1123.52,1287.1C1122.83,1287.12 1122.14,1287.07 1121.46,1286.94C1120.46,1286.76 1119.48,1286.41 1118.52,1285.92L1118.2,1285.76C1118.09,1285.69 1117.97,1285.63 1117.86,1285.56L1117.82,1285.54C1116.29,1284.64 1114.79,1283.38 1113.33,1281.77C1112.13,1280.45 1110.95,1278.9 1109.78,1277.14L1109.23,1276.28L1108.59,1275.25C1108.98,1275.9 1109.38,1276.54 1109.78,1277.14C1110.95,1278.9 1112.13,1280.45 1113.33,1281.77C1114.8,1283.38 1116.29,1284.64 1117.82,1285.54L1117.86,1285.56C1117.97,1285.63 1118.09,1285.69 1118.2,1285.76L1118.52,1285.92C1119.48,1286.41 1120.46,1286.76 1121.46,1286.94C1122.14,1287.07 1122.83,1287.12 1123.52,1287.1C1124.02,1287.08 1124.53,1287.02 1125.04,1286.92C1125.38,1286.86 1125.74,1286.77 1126.09,1286.66L1126.46,1286.54C1126.69,1286.47 1126.92,1286.38 1127.15,1286.29L1127.21,1286.26L1127.35,1286.2C1127.55,1286.12 1127.75,1286.02 1127.96,1285.92L1127.96,1285.92L1127.96,1285.92ZM1476.22,1277.75C1473.23,1274.8 1470.37,1271.78 1467.63,1268.68L1466.85,1267.79L1465.87,1266.65C1466.45,1267.33 1467.04,1268.01 1467.63,1268.68C1470.7,1272.15 1473.93,1275.53 1477.32,1278.82L1476.22,1277.75ZM908.495,1271.46C908.947,1270.61 909.41,1269.77 909.886,1268.92C910.451,1267.92 911.031,1266.93 911.623,1265.95L912.454,1264.6C911.565,1266.02 910.709,1267.46 909.886,1268.92C909.152,1270.22 908.444,1271.54 907.762,1272.87L908.495,1271.46ZM1464.4,1264.91C1463.92,1264.34 1463.45,1263.77 1462.99,1263.2L1462.05,1262.04C1462.82,1263 1463.6,1263.96 1464.4,1264.91ZM1459.32,1258.51L1460.22,1259.69L1461.13,1260.87C1460.52,1260.09 1459.92,1259.3 1459.32,1258.51ZM916.887,1258C916.289,1258.83 915.703,1259.66 915.128,1260.51L915.963,1259.3L916.887,1258ZM1472.54,1255.59L1472.94,1257.16L1473.27,1258.38C1473.02,1257.45 1472.77,1256.52 1472.54,1255.59ZM1123.04,1269.68C1122.84,1268.91 1122.65,1268.15 1122.45,1267.38L1122.11,1265.96C1121.3,1262.61 1120.59,1259.27 1119.97,1255.95C1120.59,1259.27 1121.3,1262.61 1122.11,1265.96L1122.45,1267.38C1122.65,1268.15 1122.84,1268.91 1123.04,1269.68ZM918.79,1255.45C919.406,1254.64 920.033,1253.84 920.669,1253.06L920.764,1252.94L921.119,1252.5C921.676,1251.82 922.242,1251.14 922.809,1250.48L923.858,1249.26C922.924,1250.33 922.01,1251.41 921.119,1252.5L920.764,1252.94L920.669,1253.06C919.698,1254.26 918.751,1255.48 917.829,1256.72L918.79,1255.45ZM1456.71,1254.92L1457.57,1256.12L1458.44,1257.32C1457.85,1256.52 1457.28,1255.73 1456.71,1254.92ZM1472.08,1253.68C1470.81,1248.23 1469.91,1242.83 1469.36,1237.51L1469.31,1237.09L1469.23,1236.19C1468.69,1230.42 1468.56,1224.74 1468.8,1219.17C1468.55,1224.74 1468.68,1230.42 1469.23,1236.19L1469.31,1237.09L1469.36,1237.51C1469.91,1242.83 1470.81,1248.23 1472.08,1253.68ZM1749.84,1250.44C1747.34,1247.76 1744.69,1245.14 1741.87,1242.59C1740.98,1241.78 1740.06,1240.97 1739.13,1240.17L1738.86,1239.94L1737.37,1238.68L1738.86,1239.94L1739.13,1240.17C1740.06,1240.97 1740.98,1241.78 1741.87,1242.59C1745.16,1245.57 1748.23,1248.65 1751.09,1251.81L1749.84,1250.44ZM926.007,1246.87C928.88,1243.76 931.929,1240.78 935.144,1237.94C936.644,1236.62 938.18,1235.32 939.75,1234.06C943.029,1231.42 946.458,1228.91 950.023,1226.56C951.291,1225.72 952.577,1224.89 953.877,1224.09L955.314,1223.22L953.877,1224.09L952.454,1224.98C951.984,1225.28 951.514,1225.58 951.045,1225.88L950.023,1226.56C946.455,1228.91 943.026,1231.42 939.75,1234.06C938.181,1235.32 936.646,1236.62 935.144,1237.94C931.523,1241.14 928.111,1244.52 924.924,1248.06L926.007,1246.87ZM1118.2,1244.65C1117.91,1242.37 1117.66,1240.1 1117.46,1237.83L1117.43,1237.49C1117.18,1234.67 1117,1231.87 1116.88,1229.08C1117,1231.87 1117.18,1234.67 1117.43,1237.49L1117.46,1237.83C1117.73,1240.83 1118.08,1243.86 1118.5,1246.9L1118.2,1244.65ZM1732.72,1234.97C1731.06,1233.7 1729.35,1232.45 1727.6,1231.23L1726.13,1230.21C1725.56,1229.83 1724.99,1229.44 1724.42,1229.06L1723.84,1228.68C1722.87,1228.04 1721.89,1227.42 1720.9,1226.79L1719.1,1225.68C1720.71,1226.66 1722.3,1227.66 1723.84,1228.68L1724.42,1229.06C1724.99,1229.44 1725.56,1229.83 1726.13,1230.21L1727.6,1231.23C1729.91,1232.84 1732.14,1234.5 1734.3,1236.19L1732.72,1234.97ZM1116.73,1224.09C1116.68,1221.38 1116.7,1218.68 1116.77,1216L1116.84,1213.84C1116.71,1217.23 1116.67,1220.65 1116.73,1224.09C1116.74,1225.02 1116.77,1225.95 1116.79,1226.88L1116.74,1224.69L1116.73,1224.09ZM1713.52,1222.43L1715.41,1223.5L1717.27,1224.58C1716.27,1224 1715.26,1223.41 1714.23,1222.84L1713.52,1222.43ZM1708.56,1219.78C1702.35,1216.57 1695.69,1213.6 1688.61,1210.9L1686.34,1210.05C1683.5,1209.01 1680.59,1208.01 1677.61,1207.05C1675.51,1206.37 1673.38,1205.72 1671.21,1205.09L1669.62,1204.63C1668.78,1204.4 1667.94,1204.17 1667.11,1203.93L1665.14,1203.41C1662.77,1202.79 1660.36,1202.19 1657.9,1201.62C1652.26,1200.3 1646.39,1199.12 1640.3,1198.1L1637.45,1197.63C1644.56,1198.76 1651.38,1200.09 1657.9,1201.62C1660.35,1202.19 1662.76,1202.78 1665.14,1203.41L1667.11,1203.93C1667.94,1204.17 1668.78,1204.4 1669.62,1204.63L1671.21,1205.09C1673.38,1205.72 1675.52,1206.38 1677.61,1207.05C1681.38,1208.26 1685.04,1209.55 1688.61,1210.9C1695.69,1213.6 1702.34,1216.57 1708.56,1219.78C1709.59,1220.31 1710.6,1220.84 1711.61,1221.38L1709.66,1220.35L1708.56,1219.78ZM1107.51,1273.39C1107.03,1272.53 1106.55,1271.64 1106.07,1270.71C1105.03,1268.66 1103.99,1266.45 1102.98,1264.07L1102.66,1263.35L1102.24,1262.32C1101.83,1261.34 1101.42,1260.33 1101.02,1259.3C1098.88,1253.84 1096.8,1247.71 1094.77,1241.03C1092.93,1234.99 1091.12,1228.51 1089.35,1221.67L1089.27,1221.38L1089.35,1221.67C1091.12,1228.51 1092.93,1234.99 1094.77,1241.03C1096.8,1247.71 1098.88,1253.84 1101.02,1259.3C1101.42,1260.33 1101.83,1261.34 1102.24,1262.32L1102.66,1263.35L1102.98,1264.07C1103.99,1266.45 1105.03,1268.66 1106.07,1270.71C1106.55,1271.64 1107.03,1272.53 1107.51,1273.39ZM960.344,1220.35C961.124,1219.92 961.909,1219.5 962.702,1219.09L964.219,1218.31C962.912,1218.97 961.62,1219.65 960.344,1220.35C959.636,1220.73 958.932,1221.12 958.229,1221.52L959.707,1220.69L960.344,1220.35ZM1468.97,1216.26C1469.13,1213.91 1469.36,1211.6 1469.65,1209.3L1469.68,1209.06L1469.65,1209.3C1469.3,1212.07 1469.04,1214.88 1468.88,1217.71L1468.97,1216.26ZM1455.84,1253.68C1449.88,1245.08 1444.94,1236.02 1441.23,1226.56C1440.94,1225.83 1440.66,1225.09 1440.39,1224.36L1439.91,1223.02C1439.75,1222.57 1439.59,1222.12 1439.43,1221.67L1439.2,1220.98C1438.8,1219.77 1438.41,1218.56 1438.05,1217.34L1437.72,1216.23L1437.34,1214.85L1437.21,1214.37C1436.51,1211.78 1435.91,1209.15 1435.4,1206.5L1435.14,1205.09C1435.7,1208.22 1436.39,1211.32 1437.21,1214.37L1437.34,1214.85L1437.72,1216.23L1438.05,1217.34C1438.41,1218.56 1438.8,1219.77 1439.2,1220.98C1439.43,1221.66 1439.67,1222.34 1439.91,1223.02L1440.39,1224.36C1440.66,1225.1 1440.94,1225.83 1441.23,1226.56C1444.94,1236.02 1449.88,1245.08 1455.84,1253.68ZM971.517,1214.85C973.712,1213.88 975.941,1212.96 978.205,1212.09C979.91,1211.43 981.634,1210.8 983.376,1210.2L985.048,1209.63C982.737,1210.4 980.458,1211.22 978.205,1212.09C975.944,1212.96 973.716,1213.88 971.517,1214.85C970.62,1215.25 969.73,1215.65 968.845,1216.06L970.412,1215.34L971.517,1214.85ZM1085.65,1206.83C1084.29,1206.5 1082.93,1206.17 1081.56,1205.87L1079.52,1205.42C1080.88,1205.71 1082.24,1206.02 1083.61,1206.34L1085.65,1206.83ZM1470.08,1206.22L1469.87,1207.64L1470.08,1206.22ZM1470.35,1204.59C1470.49,1203.73 1470.65,1202.87 1470.81,1202.01C1470.65,1202.87 1470.49,1203.73 1470.35,1204.59ZM1073.41,1204.21C1074.76,1204.45 1076.12,1204.72 1077.48,1204.99L1075.44,1204.59L1073.41,1204.21ZM986.789,1209.06C991.985,1207.39 997.335,1205.97 1002.82,1204.81L1004.12,1204.54L1005.92,1204.19L1007.27,1203.93C1008.02,1203.8 1008.78,1203.66 1009.53,1203.53L1011.35,1203.23C1012.85,1203 1014.35,1202.78 1015.87,1202.58C1017,1202.43 1018.14,1202.29 1019.28,1202.17C1022.2,1201.84 1025.14,1201.59 1028.11,1201.4L1030.01,1201.3C1026.39,1201.48 1022.82,1201.77 1019.28,1202.17C1018.14,1202.29 1017,1202.43 1015.87,1202.58C1014.35,1202.78 1012.85,1203 1011.35,1203.23L1009.53,1203.53C1008.78,1203.66 1008.02,1203.79 1007.27,1203.93L1005.92,1204.19L1004.12,1204.54L1002.82,1204.81C997.338,1205.97 991.988,1207.39 986.789,1209.06ZM1116.98,1211.11C1117.05,1209.75 1117.14,1208.4 1117.24,1207.05L1117.38,1205.29C1117.45,1204.58 1117.52,1203.87 1117.58,1203.16L1117.8,1201.05L1117.9,1200.18C1118.28,1196.96 1118.73,1193.77 1119.27,1190.62C1118.73,1193.77 1118.27,1196.96 1117.9,1200.18L1117.8,1201.05L1117.58,1203.16C1117.52,1203.87 1117.45,1204.58 1117.38,1205.29L1117.24,1207.05C1117.14,1208.4 1117.05,1209.76 1116.98,1211.11ZM1067.09,1203.16C1064.93,1202.85 1062.78,1202.56 1060.63,1202.32L1059.31,1202.17L1057.34,1201.96C1056,1201.83 1054.67,1201.72 1053.34,1201.62L1051.36,1201.48L1049.39,1201.36C1043.48,1201.03 1037.65,1200.99 1031.91,1201.21L1033.83,1201.15C1038.31,1201.02 1042.84,1201.05 1047.42,1201.26L1049.39,1201.36L1051.36,1201.48L1053.34,1201.62C1054.67,1201.72 1056,1201.83 1057.34,1201.96L1059.31,1202.17L1060.63,1202.32C1062.77,1202.56 1064.93,1202.84 1067.09,1203.16C1067.84,1203.28 1068.6,1203.39 1069.36,1203.52L1067.34,1203.2L1067.09,1203.16ZM1472,1196.49C1472.39,1194.87 1472.82,1193.27 1473.27,1191.68C1473.47,1190.97 1473.68,1190.27 1473.89,1189.57L1474.26,1188.41L1474.68,1187.1C1474.83,1186.66 1474.98,1186.22 1475.13,1185.78L1475.58,1184.48L1476.06,1183.18C1475.76,1183.99 1475.47,1184.8 1475.19,1185.61L1475.13,1185.78C1474.98,1186.22 1474.83,1186.66 1474.68,1187.1L1474.26,1188.41L1473.89,1189.57C1473.68,1190.27 1473.47,1190.97 1473.27,1191.68C1472.69,1193.71 1472.16,1195.78 1471.68,1197.86L1472,1196.49ZM1683.13,1179.31L1684.21,1181.1L1684.98,1182.41C1684.37,1181.37 1683.75,1180.34 1683.13,1179.31ZM1476.85,1181.1C1477.49,1179.46 1478.17,1177.84 1478.88,1176.23L1479.18,1175.56L1479.74,1174.35C1479.94,1173.93 1480.14,1173.51 1480.34,1173.09L1480.93,1171.86C1481.34,1171.05 1481.75,1170.24 1482.17,1169.44C1481.75,1170.24 1481.34,1171.05 1480.93,1171.86L1480.34,1173.09C1480.14,1173.51 1479.94,1173.93 1479.74,1174.35L1479.18,1175.56L1478.88,1176.23C1478.17,1177.84 1477.49,1179.46 1476.85,1181.1ZM1434.5,1201.07C1433.98,1197.35 1433.65,1193.57 1433.53,1189.74C1433.5,1188.81 1433.48,1187.87 1433.48,1186.93L1433.47,1185.61C1433.48,1185.17 1433.49,1184.72 1433.49,1184.28L1433.52,1182.95C1433.54,1182.5 1433.56,1182.06 1433.57,1181.61L1433.62,1180.61C1433.66,1179.76 1433.72,1178.91 1433.78,1178.07C1433.85,1177.23 1433.92,1176.4 1434,1175.56C1434.21,1173.42 1434.49,1171.26 1434.83,1169.1C1434.96,1168.21 1435.11,1167.33 1435.27,1166.44C1436.59,1159.18 1438.64,1151.79 1441.49,1144.28C1438.64,1151.79 1436.59,1159.18 1435.27,1166.44C1435.11,1167.33 1434.96,1168.21 1434.83,1169.1C1434.48,1171.26 1434.21,1173.42 1434,1175.56C1433.92,1176.4 1433.85,1177.23 1433.78,1178.07C1433.72,1178.92 1433.66,1179.76 1433.62,1180.61L1433.57,1181.61C1433.56,1182.06 1433.54,1182.5 1433.52,1182.95L1433.51,1183.5C1433.49,1184.2 1433.48,1184.91 1433.47,1185.61L1433.48,1186.93C1433.48,1187.87 1433.5,1188.81 1433.53,1189.74C1433.65,1193.57 1433.98,1197.34 1434.5,1201.07C1434.57,1201.56 1434.64,1202.05 1434.72,1202.54L1434.53,1201.26L1434.5,1201.07ZM1679.86,1174.09C1679.13,1172.95 1678.39,1171.83 1677.65,1170.74C1678.76,1172.39 1679.87,1174.08 1680.96,1175.81L1679.86,1174.09ZM1674.28,1165.89L1675.41,1167.48L1676.21,1168.63C1675.57,1167.71 1674.92,1166.79 1674.28,1165.89ZM1483.45,1167.06C1483.79,1166.45 1484.13,1165.85 1484.47,1165.26L1484.79,1164.7C1485.02,1164.32 1485.25,1163.93 1485.48,1163.54L1485.95,1162.77C1486.56,1161.76 1487.2,1160.76 1487.84,1159.77L1488.35,1159L1489.1,1157.88L1489.86,1156.78L1490.63,1155.68C1490.22,1156.27 1489.81,1156.85 1489.4,1157.45L1489.1,1157.88L1488.35,1159L1487.84,1159.77C1487.2,1160.76 1486.56,1161.76 1485.95,1162.77L1485.48,1163.54C1485.25,1163.93 1485.02,1164.32 1484.79,1164.7L1484.47,1165.26C1483.9,1166.24 1483.35,1167.24 1482.81,1168.24L1483.45,1167.06ZM1670.85,1161.25C1670.08,1160.25 1669.3,1159.26 1668.53,1158.29L1667.36,1156.84L1666.18,1155.41C1665.79,1154.95 1665.4,1154.48 1665.01,1154.02L1663.94,1152.78C1662.71,1151.37 1661.48,1149.99 1660.23,1148.65C1661.48,1149.99 1662.71,1151.36 1663.94,1152.78L1665.01,1154.02C1665.4,1154.48 1665.79,1154.95 1666.18,1155.41L1667.36,1156.84L1668.2,1157.88C1669.48,1159.47 1670.74,1161.1 1672,1162.77L1670.85,1161.25ZM1492.21,1153.53C1493.01,1152.46 1493.83,1151.41 1494.66,1150.37C1493.55,1151.76 1492.47,1153.17 1491.42,1154.6L1492.21,1153.53ZM1497.03,1147.53C1497.56,1146.92 1498.09,1146.31 1498.63,1145.7L1498.97,1145.32L1499.86,1144.35C1499.45,1144.8 1499.04,1145.25 1498.63,1145.7C1498.09,1146.31 1497.56,1146.92 1497.03,1147.53L1496.36,1148.32L1495.74,1149.06L1496.36,1148.32L1497.03,1147.53ZM1658.79,1147.13C1656.85,1145.09 1654.89,1143.15 1652.92,1141.29C1654.89,1143.15 1656.86,1145.09 1658.79,1147.13ZM1500.77,1143.38C1502.92,1141.1 1505.16,1138.92 1507.48,1136.84L1508.35,1136.07L1509.34,1135.2C1508.71,1135.74 1508.09,1136.29 1507.48,1136.84C1505.49,1138.63 1503.55,1140.49 1501.68,1142.43L1500.77,1143.38ZM1442.97,1140.55C1443.35,1139.64 1443.73,1138.74 1444.13,1137.82C1445.25,1135.27 1446.45,1132.71 1447.76,1130.13C1449.24,1127.2 1450.85,1124.25 1452.58,1121.29C1452.9,1120.74 1453.23,1120.2 1453.55,1119.65L1454.44,1118.18C1453.81,1119.22 1453.19,1120.25 1452.58,1121.29C1450.85,1124.25 1449.24,1127.2 1447.76,1130.13C1446.45,1132.71 1445.25,1135.27 1444.13,1137.82C1443.73,1138.74 1443.35,1139.64 1442.97,1140.55ZM1650.41,1139C1648.56,1137.33 1646.68,1135.75 1644.8,1134.24L1644.18,1133.74L1642.98,1132.8C1639.54,1130.13 1636.06,1127.71 1632.55,1125.52L1631.41,1124.81C1630.97,1124.55 1630.54,1124.29 1630.11,1124.03L1628.82,1123.28C1628.38,1123.04 1627.95,1122.79 1627.52,1122.55L1626.22,1121.83C1627.38,1122.46 1628.55,1123.12 1629.71,1123.8L1630.11,1124.03C1630.54,1124.29 1630.97,1124.55 1631.41,1124.81L1632.55,1125.52C1636.06,1127.71 1639.54,1130.13 1642.98,1132.8L1644.18,1133.74L1644.8,1134.24C1646.69,1135.75 1648.56,1137.34 1650.41,1139C1650.84,1139.38 1651.26,1139.76 1651.68,1140.15L1650.44,1139.02L1650.41,1139ZM1512.37,1132.69L1511.35,1133.52L1510.34,1134.36C1510.97,1133.83 1511.61,1133.31 1512.25,1132.79L1512.37,1132.69ZM1513.39,1131.88C1514.54,1130.99 1515.7,1130.12 1516.87,1129.27L1517.59,1128.76L1518.28,1128.27C1518.91,1127.83 1519.54,1127.4 1520.18,1126.98L1520.81,1126.55L1521.9,1125.85C1521.33,1126.22 1520.75,1126.59 1520.18,1126.98C1519.54,1127.4 1518.91,1127.83 1518.28,1128.27L1517.59,1128.76L1516.87,1129.27C1516.05,1129.87 1515.24,1130.47 1514.43,1131.08L1513.39,1131.88ZM1529.7,1121.29C1531.93,1120.11 1534.2,1119 1536.5,1117.99L1536.59,1117.94L1537.76,1117.44C1537.34,1117.62 1536.92,1117.8 1536.5,1117.99C1533.81,1119.18 1531.17,1120.48 1528.58,1121.89L1529.7,1121.29ZM1621,1119.19C1621.87,1119.6 1622.74,1120.03 1623.61,1120.47L1622.3,1119.82L1621,1119.19ZM1617.06,1117.41L1615.75,1116.86L1614.76,1116.46C1613.77,1116.07 1612.78,1115.69 1611.8,1115.33L1610.48,1114.86C1611.91,1115.36 1613.33,1115.89 1614.76,1116.46L1615.75,1116.86L1616.46,1117.16C1617.1,1117.43 1617.74,1117.7 1618.38,1117.99L1617.06,1117.41ZM1454,1114.36L1454.95,1116L1454,1114.36ZM1540.11,1116.46L1538.93,1116.94L1540.11,1116.46ZM1542.88,1115.41C1544.74,1114.72 1546.62,1114.09 1548.53,1113.52L1549.75,1113.15C1547.43,1113.82 1545.14,1114.58 1542.88,1115.41ZM1606.53,1113.57L1607.85,1113.98L1608.78,1114.28C1608.03,1114.03 1607.28,1113.8 1606.53,1113.57ZM1121.79,1178.36C1124.39,1167.63 1127.94,1157.27 1132.32,1147.37L1132.33,1147.33L1132.42,1147.13C1133.93,1143.74 1135.53,1140.4 1137.22,1137.12C1141.47,1128.89 1146.29,1121.01 1151.62,1113.52C1152.97,1111.62 1154.35,1109.75 1155.77,1107.9C1157.9,1105.12 1160.1,1102.4 1162.36,1099.74L1163.67,1098.22C1160.94,1101.36 1158.3,1104.59 1155.77,1107.9C1154.36,1109.75 1152.98,1111.62 1151.62,1113.52C1146.29,1121.01 1141.46,1128.89 1137.22,1137.12C1135.53,1140.4 1133.93,1143.74 1132.42,1147.13L1132.33,1147.33L1132.32,1147.37C1127.67,1157.89 1123.95,1168.92 1121.31,1180.38L1121.79,1178.36ZM1603.89,1112.8C1602.94,1112.54 1601.99,1112.29 1601.04,1112.06L1599.93,1111.79C1599.49,1111.69 1599.05,1111.59 1598.61,1111.49L1597.73,1111.31C1596.26,1111 1594.79,1110.72 1593.32,1110.48C1592.01,1110.27 1590.7,1110.08 1589.38,1109.92L1588.07,1109.77C1589.82,1109.96 1591.56,1110.19 1593.32,1110.48C1594.79,1110.72 1596.26,1110.99 1597.73,1111.31L1598.61,1111.49C1599.05,1111.59 1599.49,1111.69 1599.93,1111.79L1601.04,1112.06C1602.43,1112.4 1603.82,1112.77 1605.21,1113.17L1603.89,1112.8ZM1553.44,1112.16C1553.85,1112.06 1554.27,1111.96 1554.68,1111.86L1555.93,1111.57C1554.68,1111.85 1553.44,1112.15 1552.21,1112.48L1553.44,1112.16ZM1560.29,1110.71C1562.61,1110.3 1564.95,1109.97 1567.3,1109.72L1568.58,1109.6C1565.79,1109.85 1563.03,1110.22 1560.29,1110.71L1559.68,1110.81L1558.97,1110.95L1559.68,1110.81L1560.29,1110.71ZM1571.15,1109.4C1571.58,1109.37 1572.01,1109.35 1572.43,1109.32L1573.73,1109.27L1572.43,1109.32L1571.15,1109.4C1570.72,1109.43 1570.29,1109.46 1569.86,1109.49L1571.15,1109.4ZM1584.14,1109.42C1582.39,1109.3 1580.65,1109.23 1578.91,1109.2L1577.62,1109.19C1579.35,1109.2 1581.09,1109.25 1582.83,1109.34L1584.14,1109.42ZM1576.32,1109.2C1575.88,1109.21 1575.45,1109.21 1575.02,1109.23L1576.32,1109.2C1576.75,1109.2 1577.18,1109.19 1577.62,1109.19L1576.32,1109.2ZM1450.14,1108.04C1446.26,1101.92 1442.19,1096.18 1437.97,1090.83L1436.44,1088.91C1435.92,1088.28 1435.4,1087.64 1434.88,1087.01L1434.49,1086.55C1430.95,1082.32 1427.3,1078.33 1423.55,1074.59C1427.3,1078.33 1430.95,1082.32 1434.49,1086.55L1434.88,1087.01C1435.4,1087.64 1435.92,1088.28 1436.44,1088.91L1437.97,1090.83C1442.2,1096.19 1446.26,1101.92 1450.14,1108.04L1451.23,1109.78L1451.73,1110.59L1451.23,1109.78L1450.14,1108.04ZM1166.32,1095.22C1176.17,1084.32 1187.16,1074.52 1198.98,1065.99L1200.6,1064.83C1187.62,1074.02 1175.62,1084.72 1164.99,1096.71L1166.32,1095.22ZM1204.25,1062.31C1205.76,1061.29 1207.29,1060.28 1208.83,1059.3L1210.51,1058.24C1208.4,1059.55 1206.31,1060.91 1204.25,1062.31C1203.57,1062.77 1202.89,1063.23 1202.22,1063.69L1203.86,1062.57L1204.25,1062.31ZM1212.19,1057.19C1213.32,1056.5 1214.45,1055.82 1215.59,1055.16C1216.72,1054.49 1217.86,1053.84 1219.01,1053.2L1219.25,1053.06L1221.09,1052.04C1220.39,1052.42 1219.7,1052.81 1219.01,1053.2C1217.86,1053.84 1216.72,1054.49 1215.59,1055.16C1215.02,1055.49 1214.45,1055.83 1213.88,1056.17L1212.19,1057.19ZM1226.45,1049.21C1229.65,1047.59 1232.88,1046.04 1236.16,1044.59L1236.17,1044.58L1238.03,1043.77C1239.33,1043.21 1240.63,1042.66 1241.95,1042.12L1243.89,1041.34C1241.93,1042.12 1239.97,1042.93 1238.03,1043.77L1236.17,1044.58L1236.16,1044.59C1232.89,1046.04 1229.65,1047.58 1226.45,1049.21C1225.28,1049.81 1224.11,1050.42 1222.95,1051.04L1224.81,1050.06L1226.45,1049.21ZM1420.2,1071.33C1416.93,1068.23 1413.58,1065.31 1410.17,1062.57C1409.24,1061.82 1408.31,1061.09 1407.38,1060.37C1404.44,1058.11 1401.46,1055.97 1398.44,1053.96C1391.36,1049.25 1384.07,1045.22 1376.61,1041.84L1374.68,1040.98L1372.75,1040.15C1373.39,1040.43 1374.03,1040.71 1374.68,1040.98L1376.61,1041.84C1384.07,1045.22 1391.37,1049.25 1398.44,1053.96C1401.46,1055.97 1404.44,1058.11 1407.38,1060.37C1408.31,1061.09 1409.24,1061.82 1410.17,1062.57C1414.17,1065.79 1418.07,1069.24 1421.88,1072.94L1420.2,1071.33ZM1367.31,1038C1354.13,1033.05 1340.53,1030.02 1326.79,1028.75L1324.75,1028.57C1339.18,1029.72 1353.49,1032.8 1367.31,1038ZM1246.98,1040.15C1251.16,1038.58 1255.38,1037.15 1259.65,1035.87C1260.31,1035.67 1260.97,1035.47 1261.64,1035.28C1262.97,1034.9 1264.3,1034.53 1265.64,1034.17L1267.65,1033.65C1269.38,1033.21 1271.12,1032.8 1272.86,1032.41C1277.85,1031.3 1282.87,1030.39 1287.92,1029.69L1289.95,1029.42C1290.63,1029.34 1291.32,1029.26 1292,1029.18L1294.04,1028.96L1296.04,1028.76C1297.05,1028.67 1298.06,1028.59 1299.07,1028.52L1300.18,1028.44L1302.23,1028.31L1303.74,1028.24C1305.97,1028.14 1308.2,1028.08 1310.42,1028.06L1312.47,1028.06C1315.89,1028.07 1319.3,1028.2 1322.7,1028.42L1320.66,1028.3C1317.25,1028.11 1313.84,1028.03 1310.42,1028.06C1308.19,1028.07 1305.96,1028.13 1303.74,1028.24L1302.23,1028.31L1300.18,1028.44L1299.07,1028.52C1298.06,1028.59 1297.05,1028.67 1296.04,1028.76L1294.04,1028.96L1292,1029.18C1291.32,1029.26 1290.63,1029.34 1289.95,1029.42L1287.92,1029.69C1282.88,1030.38 1277.85,1031.29 1272.86,1032.41C1271.12,1032.8 1269.38,1033.21 1267.65,1033.65L1265.64,1034.17C1264.98,1034.35 1264.31,1034.54 1263.64,1034.72L1261.64,1035.28L1259.65,1035.87C1255.39,1037.15 1251.16,1038.58 1246.98,1040.15Z"/>
    </g>
</svg>
