<?xml version="1.0" encoding="UTF-8" standalone="no"?>
<!DOCTYPE svg PUBLIC "-//W3C//DTD SVG 1.1//EN" "http://www.w3.org/Graphics/SVG/1.1/DTD/svg11.dtd">
<svg width="100%" height="100%" viewBox="0 0 200 200" version="1.1" xmlns="http://www.w3.org/2000/svg" xmlns:xlink="http://www.w3.org/1999/xlink" xml:space="preserve" xmlns:serif="http://www.serif.com/" style="fill-rule:evenodd;clip-rule:evenodd;stroke-linejoin:round;stroke-miterlimit:2;">
    <g transform="matrix(0.204626,0,0,0.208348,-175.587,-200.106)">
        <path d="M1087.49,1162.69C1175.45,851.992 1473.85,1006.06 1488.47,1079.92C1588.64,1017.34 1713.24,1088.53 1707.35,1190.28C1915.34,1219.33 1850.07,1628.3 1582.27,1484.45L1589.63,1830.36C1441.58,1748.44 1280.92,1729.57 1113.24,1745.75C1142.51,1757.87 1199.19,1774.1 1326.61,1800.93C1261.37,1784.28 1150.95,1805.28 1026.8,1837.72C1024.78,1769.12 1036.58,1650.76 1054.18,1474.26C1055.33,1492.25 1047.81,1490.52 1006.56,1490.09C731.839,1414.29 895.644,1110.34 1087.49,1162.69Z"/>
        <path d="M1026.73,1835.07C1026.64,1831.51 1026.59,1827.83 1026.58,1824C1026.6,1828.78 1026.67,1833.35 1026.8,1837.72L1026.73,1835.07ZM1038.9,1834.58C1040.9,1834.07 1042.91,1833.55 1044.91,1833.04L1038.9,1834.58C1036.89,1835.1 1034.87,1835.62 1032.86,1836.14L1038.9,1834.58ZM1678.92,1514.74L1681.28,1514.86L1683.62,1514.95L1685.95,1515L1688.26,1515.01L1689.57,1515C1692.95,1514.97 1696.27,1514.83 1699.54,1514.58C1701.79,1514.4 1704.02,1514.18 1706.21,1513.9L1708.25,1513.63L1708.53,1513.59C1710.57,1513.3 1712.59,1512.97 1714.59,1512.59L1712.49,1512.97C1711.18,1513.2 1709.85,1513.4 1708.53,1513.59L1708.25,1513.63L1706.21,1513.9C1704.74,1514.09 1703.25,1514.25 1701.75,1514.39L1699.54,1514.58C1696.28,1514.83 1692.96,1514.98 1689.57,1515C1688.37,1515.02 1687.16,1515.01 1685.95,1515C1685.11,1514.99 1684.26,1514.97 1683.41,1514.94L1681.28,1514.86L1679.23,1514.76C1678.34,1514.71 1677.44,1514.65 1676.54,1514.59L1678.92,1514.74ZM1579.18,1824.7C1576.78,1823.42 1574.37,1822.16 1571.97,1820.92C1567.2,1818.45 1562.42,1816.06 1557.62,1813.72C1553.12,1811.52 1548.61,1809.38 1544.08,1807.3L1547.61,1808.94C1550.95,1810.5 1554.29,1812.09 1557.62,1813.72C1562.41,1816.05 1567.2,1818.45 1571.97,1820.92C1575.54,1822.76 1579.11,1824.64 1582.67,1826.56L1579.18,1824.7ZM1026.58,1818.17C1026.6,1814.22 1026.65,1810.14 1026.74,1805.92C1026.63,1811.19 1026.58,1816.26 1026.57,1821.11L1026.58,1818.17ZM1314.23,1798.31C1309.02,1797.41 1303.57,1796.71 1297.9,1796.19L1296.17,1796.04C1295.59,1795.99 1295.01,1795.94 1294.43,1795.9L1296.17,1796.04L1297.9,1796.19C1303.57,1796.71 1309.02,1797.41 1314.23,1798.31C1318.28,1799.17 1322.4,1800.05 1326.61,1800.93L1316.43,1798.78L1314.23,1798.31ZM1026.99,1796.22C1027.06,1793.98 1027.14,1791.74 1027.22,1789.5L1027.49,1782.57C1027.19,1789.6 1026.96,1796.32 1026.81,1802.74L1026.99,1796.22ZM1537.01,1804.08C1533.47,1802.5 1529.92,1800.95 1526.36,1799.43L1529.91,1800.96C1531.1,1801.48 1532.28,1801.99 1533.46,1802.51L1537.01,1804.08ZM1322.76,1800.01C1320,1799.38 1317.15,1798.81 1314.23,1798.31C1314.23,1798.31 1306.56,1796.67 1306.56,1796.67L1314.23,1798.31C1317.15,1798.81 1319.99,1799.38 1322.76,1800.01L1323.65,1800.21L1325.13,1800.57C1324.35,1800.37 1323.56,1800.19 1322.76,1800.01ZM1515.68,1794.97C1512.11,1793.52 1508.53,1792.09 1504.95,1790.7L1508.53,1792.11C1512.11,1793.52 1515.68,1794.96 1519.24,1796.44L1515.68,1794.97ZM1290.9,1795.65C1289.13,1795.54 1287.33,1795.45 1285.51,1795.37L1287.32,1795.45C1289.13,1795.54 1290.91,1795.65 1292.67,1795.77L1290.9,1795.65ZM1056.87,1830.03C1061.18,1828.95 1065.48,1827.89 1069.77,1826.84C1083.17,1823.57 1096.35,1820.48 1109.29,1817.6L1114.95,1816.35C1131.91,1812.64 1148.41,1809.32 1164.34,1806.46L1169.63,1805.53C1171.38,1805.23 1173.13,1804.93 1174.88,1804.63L1178.15,1804.08C1181.46,1803.54 1184.74,1803.01 1188,1802.51C1193.9,1801.6 1199.71,1800.76 1205.43,1800.01L1209.07,1799.54C1212.43,1799.11 1215.76,1798.71 1219.06,1798.34L1223.26,1797.88L1226.33,1797.57C1233.53,1796.85 1240.55,1796.28 1247.37,1795.87L1248.71,1795.78L1252.79,1795.57C1256.85,1795.37 1260.84,1795.23 1264.75,1795.15L1268.64,1795.1C1271.21,1795.08 1273.76,1795.08 1276.27,1795.11C1278.15,1795.14 1280.01,1795.18 1281.85,1795.23L1280,1795.18C1278.77,1795.15 1277.52,1795.13 1276.27,1795.11L1272.48,1795.09C1271.21,1795.08 1269.93,1795.09 1268.64,1795.1L1264.75,1795.15C1262.14,1795.21 1259.5,1795.29 1256.83,1795.39L1252.79,1795.57L1248.71,1795.78L1247.37,1795.87C1240.54,1796.28 1233.53,1796.85 1226.33,1797.57L1223.26,1797.88L1219.06,1798.34C1215.76,1798.71 1212.43,1799.11 1209.07,1799.54L1205.43,1800.01C1199.71,1800.76 1193.9,1801.6 1188,1802.51C1184.74,1803.01 1181.46,1803.54 1178.15,1804.08L1174.88,1804.63C1173.13,1804.93 1171.38,1805.23 1169.63,1805.53L1164.34,1806.46C1150.18,1809 1135.57,1811.91 1120.59,1815.13L1114.95,1816.35C1113.07,1816.77 1111.18,1817.18 1109.29,1817.6C1096.36,1820.48 1083.17,1823.57 1069.77,1826.84C1067.45,1827.41 1065.13,1827.98 1062.81,1828.55L1056.87,1830.03ZM1499.69,1788.69C1493.08,1786.18 1486.44,1783.79 1479.79,1781.49L1483.4,1782.74C1488.84,1784.65 1494.28,1786.63 1499.69,1788.69ZM1028.39,1764.18C1028.87,1755.47 1029.44,1746.33 1030.09,1736.79L1029.55,1744.93C1029.12,1751.56 1028.73,1757.97 1028.39,1764.18L1028.18,1768.13L1027.92,1773.29L1028.18,1768.13L1028.39,1764.18ZM1287.72,1792.59C1284.68,1791.93 1281.68,1791.27 1278.73,1790.62L1270.03,1788.69C1265.49,1787.67 1261.06,1786.68 1256.76,1785.7C1250.23,1784.22 1243.98,1782.78 1237.97,1781.37L1230.61,1779.64C1218.56,1776.79 1207.57,1774.1 1197.52,1771.55C1181.69,1767.53 1168.22,1763.87 1156.69,1760.49L1162.62,1762.2C1172.78,1765.1 1184.33,1768.2 1197.52,1771.55C1209.57,1774.61 1222.99,1777.88 1237.97,1781.37C1243.98,1782.78 1250.23,1784.22 1256.76,1785.7C1261.07,1786.68 1265.49,1787.67 1270.03,1788.69L1278.73,1790.62C1284.63,1791.92 1290.71,1793.25 1296.99,1794.61L1287.72,1792.59ZM1470.47,1778.36C1459.1,1774.62 1447.66,1771.18 1436.18,1768.03L1432.52,1767.04C1426.72,1765.49 1420.9,1764.01 1415.07,1762.6C1406.18,1760.45 1397.25,1758.47 1388.29,1756.65L1384.58,1755.91C1382.11,1755.42 1379.63,1754.94 1377.15,1754.48L1373.43,1753.79C1370,1753.16 1366.56,1752.56 1363.12,1751.98C1361.59,1751.72 1360.05,1751.47 1358.51,1751.22L1354.78,1750.63C1353.54,1750.43 1352.29,1750.24 1351.05,1750.05L1349.18,1749.77C1343.57,1748.93 1337.95,1748.15 1332.32,1747.43L1336.08,1747.91C1340.45,1748.5 1344.82,1749.11 1349.18,1749.77L1351.05,1750.05C1352.29,1750.24 1353.54,1750.43 1354.78,1750.63L1358.51,1751.22C1360.05,1751.47 1361.59,1751.72 1363.12,1751.98C1367.81,1752.77 1372.49,1753.6 1377.15,1754.48L1380.87,1755.18C1382.11,1755.42 1383.35,1755.66 1384.58,1755.91L1388.29,1756.65C1397.25,1758.47 1406.17,1760.45 1415.07,1762.6C1420.9,1764.01 1426.72,1765.49 1432.52,1767.04L1436.18,1768.03C1447.66,1771.18 1459.09,1774.61 1470.47,1778.36L1472.56,1779.05L1476.18,1780.26C1474.28,1779.61 1472.37,1778.98 1470.47,1778.36ZM1151.08,1758.83C1137.46,1754.73 1126.76,1751.07 1118.16,1747.72L1116.46,1747.06L1115.55,1746.69C1114.77,1746.38 1114,1746.06 1113.24,1745.75L1114.83,1746.4L1116.46,1747.06L1118.16,1747.72C1127.33,1751.29 1138.89,1755.22 1153.84,1759.65L1151.08,1758.83ZM1121.09,1745.02C1135.37,1743.73 1149.61,1742.71 1163.78,1741.95L1164.05,1741.94L1165.09,1741.88C1173.82,1741.43 1182.53,1741.08 1191.21,1740.84L1187.34,1740.96C1179.94,1741.19 1172.53,1741.5 1165.09,1741.88L1164.05,1741.94L1163.78,1741.95C1148.32,1742.77 1132.77,1743.92 1117.17,1745.38L1121.09,1745.02ZM1324.81,1746.5C1317.77,1745.66 1310.72,1744.92 1303.63,1744.26C1295.6,1743.52 1287.54,1742.88 1279.45,1742.36L1275.64,1742.12L1272.5,1741.94C1271.01,1741.85 1269.52,1741.77 1268.03,1741.69L1264.22,1741.51C1243.2,1740.51 1222.03,1740.23 1200.74,1740.63L1198.95,1740.66L1195.08,1740.74C1196.97,1740.7 1198.85,1740.66 1200.74,1740.63C1223.32,1740.21 1245.76,1740.54 1268.03,1741.69C1269.52,1741.77 1271.01,1741.85 1272.5,1741.94L1275.64,1742.12L1279.45,1742.36C1287.53,1742.88 1295.59,1743.52 1303.63,1744.26C1309.45,1744.8 1315.26,1745.4 1321.05,1746.06L1324.81,1746.5ZM1031.12,1722.25C1030.97,1724.33 1030.82,1726.4 1030.67,1728.44L1031.12,1722.25ZM1021.34,1490.28C1028.98,1490.37 1034.95,1490.39 1039.6,1490.05L1040.57,1489.97L1040.58,1489.97C1043.44,1489.72 1045.75,1489.32 1047.61,1488.69C1049.77,1487.96 1051.31,1486.93 1052.36,1485.48C1051.31,1486.93 1049.77,1487.96 1047.61,1488.69C1045.75,1489.32 1043.44,1489.72 1040.58,1489.97C1040.26,1490 1039.93,1490.02 1039.6,1490.05C1034.95,1490.39 1028.98,1490.37 1021.34,1490.28L1014.38,1490.18C1011.92,1490.15 1009.32,1490.12 1006.56,1490.09L1014.38,1490.18L1021.34,1490.28ZM1671.72,1514.17C1670.91,1514.09 1670.1,1514 1669.29,1513.9L1671.72,1514.17C1672.53,1514.25 1673.33,1514.33 1674.14,1514.4L1671.72,1514.17ZM1662.42,1512.97C1660.87,1512.73 1659.31,1512.47 1657.74,1512.18C1650.71,1510.91 1643.49,1509.2 1636.07,1507.01C1643.49,1509.2 1650.72,1510.91 1657.74,1512.18C1659.31,1512.47 1660.88,1512.73 1662.42,1512.97L1664.37,1513.26L1666.75,1513.59L1664.37,1513.26L1662.42,1512.97ZM1716.66,1512.18C1718.73,1511.76 1720.77,1511.28 1722.79,1510.77C1724.68,1510.28 1726.55,1509.76 1728.4,1509.19C1729.86,1508.74 1731.31,1508.27 1732.74,1507.78L1732.89,1507.73C1734.73,1507.09 1736.53,1506.42 1738.32,1505.71C1740.19,1504.96 1742.03,1504.17 1743.84,1503.35L1745.65,1502.51C1747.4,1501.67 1749.12,1500.81 1750.81,1499.9C1756.08,1497.09 1761.1,1493.93 1765.86,1490.45L1767.43,1489.29C1770.49,1486.99 1773.43,1484.55 1776.27,1482L1776.42,1481.86L1777.44,1480.93C1779.01,1479.49 1780.54,1478.01 1782.04,1476.49C1794.35,1464.04 1804.36,1449.2 1812.02,1432.91C1804.65,1448.59 1795.09,1462.93 1783.4,1475.1L1782.04,1476.49C1780.54,1478 1779.01,1479.48 1777.44,1480.93L1776.42,1481.86L1776.27,1482C1772.95,1484.99 1769.48,1487.81 1765.86,1490.45C1761.1,1493.93 1756.08,1497.09 1750.81,1499.9C1748.54,1501.12 1746.21,1502.27 1743.84,1503.35C1742.63,1503.9 1741.41,1504.43 1740.18,1504.95L1738.32,1505.71C1736.54,1506.42 1734.73,1507.09 1732.89,1507.73L1732.74,1507.78C1731.31,1508.27 1729.86,1508.74 1728.4,1509.19C1726.55,1509.75 1724.68,1510.28 1722.79,1510.77C1721.44,1511.11 1720.09,1511.43 1718.72,1511.74L1716.66,1512.18ZM1622.51,1502.58C1621.59,1502.24 1620.67,1501.91 1619.75,1501.56L1622.51,1502.58C1623.43,1502.91 1624.35,1503.23 1625.26,1503.55L1622.51,1502.58ZM1582.27,1484.45C1589.46,1488.31 1596.5,1491.77 1603.42,1494.86C1607.05,1496.48 1610.63,1498 1614.17,1499.41L1611.35,1498.27C1608.73,1497.19 1606.08,1496.05 1603.42,1494.86C1597.46,1492.2 1591.41,1489.26 1585.26,1486.03L1582.27,1484.45ZM1002.98,1489.08C1001.13,1488.54 999.302,1488 997.49,1487.45L995.709,1486.9C993.826,1486.31 991.966,1485.72 990.124,1485.11L988.744,1484.65L985.901,1483.68L983.093,1482.69C979.076,1481.26 975.17,1479.77 971.364,1478.22L969.589,1477.49L968.9,1477.2C967.396,1476.58 965.91,1475.94 964.433,1475.3L966.994,1476.4L969.589,1477.49L971.364,1478.22C976.042,1480.12 980.887,1481.94 985.901,1483.68L988.744,1484.65L990.124,1485.11C991.964,1485.72 993.825,1486.32 995.709,1486.9L997.49,1487.45L1000.48,1488.35L1002.98,1489.08ZM1032.6,1703C1037.32,1643.79 1044.52,1571.13 1053.21,1483.99C1053.67,1482.95 1053.96,1481.75 1054.13,1480.36L1054.05,1480.93C1053.88,1482.08 1053.6,1483.1 1053.21,1483.99C1044.2,1574.35 1036.79,1649.14 1032.09,1709.53L1032.6,1703ZM1054.28,1477.88C1054.27,1478.33 1054.26,1478.75 1054.23,1479.17L1054.26,1478.54L1054.28,1477.88ZM1054.28,1476.5C1054.27,1476.27 1054.26,1476.03 1054.25,1475.78L1054.28,1476.5C1054.28,1476.74 1054.28,1476.98 1054.28,1477.2L1054.28,1476.5ZM1052.85,1484.72C1052.98,1484.49 1053.1,1484.24 1053.21,1483.99C1053.03,1484.39 1052.83,1484.76 1052.61,1485.11L1052.85,1484.72ZM959.417,1473.03L956.961,1471.88C956.154,1471.49 955.346,1471.1 954.539,1470.7L952.321,1469.6C950.68,1468.78 949.063,1467.94 947.479,1467.1L949.798,1468.31C950.632,1468.75 951.472,1469.17 952.321,1469.6L954.539,1470.7C955.346,1471.1 956.154,1471.49 956.961,1471.88L959.417,1473.03L960.842,1473.68L959.417,1473.03ZM942.942,1464.61C941.454,1463.78 939.989,1462.93 938.539,1462.07L940.724,1463.35C942.191,1464.2 943.681,1465.04 945.193,1465.86L942.942,1464.61ZM934.27,1459.48C932.932,1458.64 931.615,1457.8 930.328,1456.95C929.581,1456.46 928.841,1455.96 928.115,1455.48L930.134,1456.82L930.328,1456.95C932.301,1458.25 934.321,1459.52 936.388,1460.78L934.27,1459.48ZM926.129,1454.11C918.817,1449.04 912.18,1443.69 906.188,1438.11L904.804,1436.8L903.232,1435.28L901.691,1433.76L900.372,1432.41C899.804,1431.83 899.243,1431.24 898.687,1430.65L897.252,1429.1L896.121,1427.85C895.085,1426.69 894.073,1425.53 893.087,1424.36L891.759,1422.76L891.332,1422.23C884.088,1413.29 878.229,1403.91 873.656,1394.25L872.847,1392.51L872.194,1391.05C870.839,1387.98 869.611,1384.88 868.507,1381.76L867.949,1380.15L867.477,1378.73C865.155,1371.62 863.463,1364.4 862.369,1357.12L862.293,1356.62C860.77,1346.25 860.453,1335.75 861.238,1325.28C861.652,1319.75 862.376,1314.21 863.393,1308.71C863.81,1306.45 864.276,1304.21 864.793,1301.96L864.921,1301.4L865.351,1299.6C865.525,1298.88 865.705,1298.17 865.891,1297.46L866.29,1295.94L866.676,1294.54C867.216,1292.59 867.793,1290.65 868.406,1288.72L869.04,1286.76L869.518,1285.34C870.241,1283.21 871.006,1281.1 871.813,1278.99L872.565,1277.06C872.823,1276.41 873.081,1275.77 873.34,1275.13L874.138,1273.22L874.283,1272.88C877.49,1265.35 881.229,1257.98 885.447,1250.84L884.386,1252.66C880.595,1259.23 877.215,1265.99 874.283,1272.88L874.138,1273.22C873.598,1274.49 873.074,1275.77 872.565,1277.06L871.813,1278.99C871.006,1281.09 870.24,1283.21 869.518,1285.34L869.04,1286.76L868.406,1288.72C867.793,1290.65 867.216,1292.59 866.676,1294.54L866.29,1295.94L865.891,1297.46C865.707,1298.17 865.529,1298.88 865.351,1299.6L864.921,1301.4L864.793,1301.96C864.278,1304.21 863.811,1306.46 863.393,1308.71C862.489,1313.6 861.816,1318.52 861.387,1323.44L861.238,1325.28C860.454,1335.75 860.771,1346.25 862.293,1356.62L862.369,1357.12C863.465,1364.4 865.156,1371.62 867.477,1378.73L867.949,1380.15L868.507,1381.76C869.61,1384.88 870.837,1387.97 872.194,1391.05L872.847,1392.51L873.656,1394.25C878.229,1403.92 884.087,1413.29 891.332,1422.23L891.759,1422.76L893.087,1424.36C894.074,1425.53 895.085,1426.7 896.121,1427.85L897.252,1429.1L898.687,1430.65C899.242,1431.24 899.804,1431.83 900.372,1432.41L901.691,1433.76L903.232,1435.28L904.804,1436.8L906.188,1438.11C911.643,1443.19 917.632,1448.08 924.176,1452.74L926.129,1454.11ZM1813.68,1429.27C1815.09,1426.07 1816.42,1422.82 1817.65,1419.53C1818.31,1417.78 1818.94,1416.03 1819.54,1414.27C1819.78,1413.57 1820.01,1412.87 1820.25,1412.15C1821.17,1409.34 1822.04,1406.5 1822.83,1403.64L1822.22,1405.78C1821.6,1407.93 1820.94,1410.05 1820.25,1412.15C1820.01,1412.87 1819.78,1413.57 1819.54,1414.27C1818.94,1416.03 1818.31,1417.78 1817.65,1419.53C1816.18,1423.45 1814.58,1427.31 1812.86,1431.09L1813.68,1429.27ZM1823.99,1399.32C1824.65,1396.71 1825.26,1394.08 1825.82,1391.44C1826.12,1390.05 1826.39,1388.66 1826.66,1387.25C1827.34,1383.66 1827.93,1380.06 1828.42,1376.42L1828.6,1375.08L1828.81,1373.39C1829.41,1368.43 1829.83,1363.44 1830.06,1358.45C1830.12,1357.24 1830.17,1356.02 1830.21,1354.79C1830.33,1350.5 1830.33,1346.2 1830.19,1341.91C1829.8,1330.08 1828.4,1318.32 1825.95,1306.88C1825.26,1303.62 1824.48,1300.39 1823.62,1297.19C1820.53,1285.8 1816.38,1274.81 1811.13,1264.49C1816.38,1274.82 1820.54,1285.81 1823.62,1297.19C1824.48,1300.39 1825.26,1303.62 1825.95,1306.88C1828.4,1318.32 1829.81,1330.08 1830.19,1341.91C1830.33,1346.2 1830.33,1350.49 1830.21,1354.79C1830.17,1356.01 1830.12,1357.23 1830.06,1358.45C1829.83,1363.44 1829.41,1368.43 1828.81,1373.39L1828.6,1375.08L1828.42,1376.42C1827.93,1380.05 1827.35,1383.66 1826.66,1387.25C1826.4,1388.65 1826.12,1390.05 1825.82,1391.44C1825.11,1394.82 1824.31,1398.16 1823.42,1401.48L1823.99,1399.32ZM1809.11,1260.65C1807.98,1258.56 1806.8,1256.51 1805.57,1254.49C1803.81,1251.57 1801.95,1248.73 1800,1245.95C1798.76,1244.19 1797.47,1242.46 1796.15,1240.75L1797.46,1242.47C1798.32,1243.62 1799.17,1244.78 1800,1245.95C1801.95,1248.73 1803.81,1251.57 1805.57,1254.49C1807.17,1257.12 1808.69,1259.82 1810.14,1262.56L1809.11,1260.65ZM887.631,1247.24C888.484,1245.87 889.355,1244.51 890.244,1243.15C890.901,1242.15 891.568,1241.16 892.243,1240.16L893.446,1238.42L894.669,1236.69C896.542,1234.07 898.482,1231.49 900.493,1228.95L901.071,1228.22L902.408,1226.57C902.86,1226.02 903.312,1225.47 903.763,1224.92L905.137,1223.3L906.343,1221.89C907.337,1220.75 908.345,1219.62 909.367,1218.49L907.939,1220.08C907.404,1220.68 906.872,1221.28 906.343,1221.89L905.137,1223.3L903.763,1224.92C903.312,1225.47 902.86,1226.02 902.408,1226.57L901.071,1228.22L900.493,1228.95C898.926,1230.93 897.399,1232.94 895.911,1234.98L894.669,1236.69L893.446,1238.42L892.243,1240.16C891.567,1241.16 890.9,1242.15 890.244,1243.15C888.969,1245.1 887.731,1247.06 886.528,1249.04L887.631,1247.24ZM1793.46,1237.39C1791.17,1234.62 1788.77,1231.94 1786.26,1229.35C1789.27,1232.45 1792.12,1235.69 1794.82,1239.06L1793.46,1237.39ZM1778.16,1221.68C1772.68,1216.91 1766.76,1212.56 1760.38,1208.7C1759.23,1208.01 1758.06,1207.32 1756.88,1206.65L1758.82,1207.77L1760.38,1208.7C1766.76,1212.57 1772.69,1216.91 1778.16,1221.68ZM912.275,1215.36C914.238,1213.29 916.247,1211.26 918.298,1209.27L919.846,1207.79L921.063,1206.65C924.886,1203.09 928.855,1199.67 932.958,1196.41L934.496,1195.2L936.201,1193.89C940.147,1190.89 944.21,1188.04 948.379,1185.35C955.537,1180.73 963.016,1176.58 970.771,1172.97C974.22,1171.36 977.723,1169.86 981.28,1168.46C991.3,1164.55 1001.72,1161.52 1012.44,1159.51L1012.6,1159.48L1013.93,1159.24C1019.99,1158.16 1026.14,1157.41 1032.38,1157.01L1030.15,1157.17C1024.68,1157.59 1019.26,1158.29 1013.93,1159.24L1012.6,1159.48L1012.44,1159.51C1001.72,1161.52 991.303,1164.55 981.28,1168.46C977.727,1169.85 974.225,1171.36 970.771,1172.97C963.016,1176.58 955.534,1180.73 948.379,1185.35C944.21,1188.04 940.149,1190.89 936.201,1193.89C935.111,1194.72 934.03,1195.56 932.958,1196.41C928.853,1199.67 924.884,1203.09 921.063,1206.65C920.134,1207.52 919.213,1208.39 918.298,1209.27C915.733,1211.76 913.237,1214.31 910.812,1216.92L912.275,1215.36ZM1750.89,1203.48L1748.84,1202.49L1747.84,1202.02C1746.79,1201.53 1745.73,1201.06 1744.66,1200.59L1746.77,1201.52L1748.84,1202.49L1750.17,1203.13C1751.09,1203.58 1752,1204.04 1752.91,1204.51L1750.89,1203.48ZM1740.38,1198.82C1738.93,1198.25 1737.47,1197.71 1735.99,1197.18L1733.75,1196.41C1732.99,1196.17 1732.24,1195.92 1731.48,1195.68L1729.71,1195.14C1726.12,1194.06 1722.43,1193.1 1718.63,1192.28C1716.58,1191.84 1714.5,1191.43 1712.39,1191.07L1714.87,1191.52C1715.69,1191.68 1716.51,1191.84 1717.33,1192L1718.63,1192.28C1722.43,1193.1 1726.12,1194.06 1729.71,1195.14C1731.07,1195.55 1732.41,1195.97 1733.75,1196.41L1735.99,1197.18C1738.21,1197.97 1740.4,1198.81 1742.54,1199.69L1740.38,1198.82ZM1707.36,1190.07C1707.51,1187.25 1707.57,1184.46 1707.54,1181.69C1707.57,1184.46 1707.52,1187.25 1707.36,1190.07ZM1707.47,1179.2C1707.37,1176.34 1707.17,1173.52 1706.87,1170.72L1706.75,1169.71C1706.71,1169.32 1706.66,1168.92 1706.61,1168.53L1706.45,1167.36C1706.61,1168.47 1706.75,1169.6 1706.87,1170.72C1707.17,1173.52 1707.37,1176.34 1707.47,1179.2C1707.49,1179.62 1707.5,1180.05 1707.51,1180.48L1707.48,1179.27L1707.47,1179.2ZM1705.92,1163.86C1706.05,1164.63 1706.17,1165.41 1706.29,1166.19L1706.11,1165.02L1705.92,1163.86ZM1705.5,1161.54C1705.32,1160.6 1705.13,1159.67 1704.93,1158.73C1703.81,1153.57 1702.35,1148.53 1700.58,1143.63L1700.97,1144.72C1702.57,1149.27 1703.9,1153.95 1704.93,1158.73C1705.21,1160.05 1705.48,1161.37 1705.72,1162.7L1705.5,1161.54ZM1034.61,1156.88C1036.85,1156.76 1039.1,1156.69 1041.35,1156.67L1043.61,1156.66L1044.96,1156.68C1047.09,1156.7 1049.22,1156.77 1051.36,1156.88L1052.71,1156.95L1053.62,1157.01C1056.36,1157.18 1059.12,1157.43 1061.89,1157.74L1064.2,1158.02C1066.55,1158.34 1066.52,1158.34 1068.83,1158.68L1071.15,1159.06L1071.39,1159.11C1074.41,1159.63 1077.43,1160.23 1080.47,1160.93C1082.03,1161.28 1083.59,1161.66 1085.15,1162.07L1087.49,1162.69C1085.15,1162.05 1082.81,1161.46 1080.47,1160.93C1077.43,1160.23 1074.4,1159.62 1071.39,1159.11L1071.15,1159.06L1068.83,1158.68C1066.51,1158.32 1064.2,1158.01 1061.89,1157.74C1059.12,1157.43 1056.37,1157.18 1053.62,1157.01L1052.71,1156.95L1051.36,1156.88C1049.22,1156.77 1047.08,1156.7 1044.96,1156.68L1043.61,1156.66L1041.35,1156.67C1039.85,1156.69 1038.35,1156.72 1036.85,1156.78L1034.61,1156.88ZM1488.24,1078.86C1488.16,1078.51 1488.07,1078.15 1487.97,1077.79L1488.24,1078.86C1488.32,1079.22 1488.4,1079.57 1488.47,1079.92L1488.24,1078.86ZM1699.77,1141.47C1699.49,1140.74 1699.19,1140 1698.89,1139.27C1697.81,1136.61 1696.62,1133.99 1695.35,1131.43C1693.45,1127.59 1691.34,1123.86 1689.05,1120.25C1687.16,1117.27 1685.14,1114.38 1683,1111.56C1681.15,1109.12 1679.21,1106.75 1677.18,1104.44L1675.65,1102.73C1673.58,1100.46 1671.43,1098.26 1669.2,1096.12C1667.14,1094.15 1665.02,1092.24 1662.83,1090.4C1653.77,1082.77 1643.65,1076.23 1632.75,1070.99C1631.43,1070.36 1630.1,1069.74 1628.76,1069.14L1630.76,1070.05C1631.43,1070.36 1632.09,1070.67 1632.75,1070.99C1643.65,1076.23 1653.77,1082.77 1662.83,1090.4C1664.42,1091.75 1665.99,1093.13 1667.52,1094.54L1669.2,1096.12C1671.99,1098.79 1674.65,1101.56 1677.18,1104.44C1679.21,1106.75 1681.15,1109.12 1683,1111.56C1685.14,1114.37 1687.16,1117.27 1689.05,1120.25C1691.34,1123.87 1693.45,1127.6 1695.35,1131.43C1696.62,1134 1697.81,1136.61 1698.89,1139.27C1699.34,1140.35 1699.77,1141.45 1700.18,1142.55L1699.77,1141.47ZM1486.95,1074.53L1487.33,1075.63L1486.95,1074.53ZM1486.02,1072.15C1485.57,1071.09 1485.07,1070.01 1484.52,1068.92L1485.08,1070.06C1485.25,1070.43 1485.43,1070.81 1485.6,1071.19L1486.02,1072.15ZM1483.3,1066.62C1482.87,1065.85 1482.42,1065.08 1481.94,1064.29L1482.63,1065.46C1483.09,1066.23 1483.52,1067 1483.93,1067.77L1483.3,1066.62ZM1620.58,1065.8C1619.89,1065.54 1619.19,1065.29 1618.49,1065.04L1620.58,1065.8C1621.27,1066.06 1621.96,1066.32 1622.64,1066.59L1620.58,1065.8ZM1495.75,1075.63C1525.51,1059.12 1557.05,1053.94 1586.45,1057.49L1588.03,1057.68L1588.74,1057.78C1591.12,1058.1 1593.48,1058.49 1595.83,1058.92L1596.95,1059.13L1597.25,1059.19C1600.54,1059.84 1603.79,1060.59 1607.01,1061.46C1608.74,1061.92 1610.46,1062.41 1612.16,1062.93L1614.29,1063.6C1614.99,1063.83 1615.7,1064.07 1616.4,1064.31L1614.29,1063.6C1611.88,1062.83 1609.46,1062.11 1607.01,1061.46C1603.79,1060.6 1600.54,1059.84 1597.25,1059.19L1596.95,1059.13L1595.83,1058.92C1593.48,1058.49 1591.12,1058.1 1588.74,1057.78L1588.03,1057.68L1586.45,1057.49C1557.05,1053.94 1525.51,1059.12 1495.75,1075.63ZM1132.12,1062.79C1114.34,1088.85 1099.09,1121.73 1087.49,1162.69L1087.49,1162.69L1087.49,1162.69C1099.36,1120.77 1115.06,1087.3 1133.37,1060.98L1132.12,1062.79ZM1479.03,1059.88C1478.34,1058.9 1477.62,1057.92 1476.87,1056.95L1476.13,1055.98L1475.17,1054.78C1475.75,1055.5 1476.32,1056.22 1476.87,1056.95C1477.62,1057.93 1478.34,1058.9 1479.03,1059.88L1479.64,1060.76L1480.44,1061.94C1479.99,1061.25 1479.52,1060.56 1479.03,1059.88ZM1472.1,1051.15L1473.15,1052.36L1472.1,1051.15ZM1469.9,1048.72L1471.02,1049.93L1469.9,1048.72ZM1467.02,1045.7C1465.84,1044.51 1464.62,1043.31 1463.36,1042.11C1462.69,1041.47 1462,1040.83 1461.3,1040.18L1462.61,1041.4L1463.36,1042.11C1464.62,1043.31 1465.84,1044.5 1467.02,1045.7L1467.59,1046.28L1468.27,1046.99L1467.59,1046.28L1467.02,1045.7ZM1458.58,1037.75C1457.66,1036.94 1456.72,1036.13 1455.76,1035.32C1457.2,1036.54 1458.6,1037.75 1459.95,1038.97L1458.58,1037.75ZM1136.23,1056.95C1137.06,1055.81 1137.89,1054.68 1138.73,1053.57C1140.77,1050.87 1142.83,1048.25 1144.92,1045.7C1147.54,1042.52 1150.2,1039.47 1152.9,1036.54C1153.38,1036.02 1153.85,1035.51 1154.33,1035.01L1155.7,1033.56C1156.16,1033.09 1156.62,1032.61 1157.08,1032.14L1158.46,1030.74C1157.54,1031.66 1156.62,1032.61 1155.7,1033.56L1154.33,1035.01C1153.85,1035.51 1153.38,1036.02 1152.9,1036.54C1150.66,1038.97 1148.44,1041.5 1146.25,1044.11L1144.92,1045.7C1142.83,1048.24 1140.77,1050.86 1138.73,1053.57C1137.89,1054.68 1137.06,1055.81 1136.23,1056.95ZM1452.84,1032.91C1450.63,1031.12 1448.34,1029.34 1445.96,1027.58L1445.08,1026.92L1444.37,1026.4C1440.55,1023.63 1436.54,1020.89 1432.35,1018.21C1431.45,1017.64 1430.54,1017.07 1429.62,1016.49L1431.43,1017.63L1432.35,1018.21C1436.54,1020.89 1440.55,1023.63 1444.37,1026.4L1445.08,1026.92L1445.96,1027.58C1448.87,1029.74 1451.65,1031.92 1454.31,1034.11L1452.84,1032.91ZM1159.9,1029.3C1161.55,1027.68 1163.21,1026.1 1164.88,1024.56C1170.28,1019.61 1175.8,1015.08 1181.44,1010.97L1181.74,1010.75C1186.57,1007.23 1191.49,1004.02 1196.47,1001.09C1191.49,1004.02 1186.57,1007.23 1181.74,1010.75L1181.44,1010.97C1175.8,1015.08 1170.28,1019.61 1164.88,1024.56C1163.21,1026.1 1161.55,1027.68 1159.9,1029.3ZM1425.95,1014.26C1424.71,1013.51 1423.45,1012.78 1422.19,1012.05L1420.28,1010.97C1416.54,1008.86 1412.7,1006.81 1408.75,1004.82C1405.93,1003.41 1403.06,1002.03 1400.15,1000.69C1403.07,1002.03 1405.93,1003.41 1408.75,1004.82C1412.69,1006.81 1416.54,1008.86 1420.28,1010.97L1422.19,1012.05C1422.82,1012.42 1423.45,1012.78 1424.08,1013.15L1425.95,1014.26C1426.57,1014.63 1427.18,1015 1427.8,1015.37L1425.95,1014.26ZM1395.92,998.777L1398.05,999.724L1395.92,998.777ZM1202.23,997.844C1203.38,997.22 1204.54,996.612 1205.7,996.017L1204.16,996.818C1203.51,997.155 1202.87,997.497 1202.23,997.844C1201.33,998.33 1200.43,998.825 1199.53,999.326L1201.07,998.473L1202.23,997.844ZM1209.25,994.258C1211.18,993.322 1213.13,992.426 1215.08,991.568C1213.12,992.426 1211.18,993.322 1209.25,994.258C1208.58,994.578 1207.92,994.903 1207.26,995.232L1208.82,994.465L1209.25,994.258ZM1391.62,996.925C1390.29,996.364 1388.95,995.81 1387.6,995.268C1377.61,991.236 1367.16,987.682 1356.39,984.761L1355.28,984.459L1352.91,983.837C1354.07,984.136 1355.23,984.442 1356.39,984.761C1367.16,987.685 1377.61,991.237 1387.6,995.268C1389.68,996.106 1391.74,996.965 1393.78,997.844L1391.62,996.925ZM1345.74,982.097L1347.84,982.587L1345.74,982.097ZM1218.23,990.219C1224.15,987.749 1230.14,985.629 1236.18,983.837C1243.54,981.649 1250.96,979.948 1258.42,978.691C1260.1,978.409 1261.78,978.149 1263.46,977.909L1260.94,978.284C1260.1,978.414 1259.26,978.55 1258.42,978.691C1250.96,979.948 1243.54,981.649 1236.18,983.837C1229.61,985.789 1223.1,988.128 1216.65,990.885L1218.23,990.219ZM1340.91,981.045C1339.57,980.766 1338.23,980.497 1336.88,980.242C1335.68,980.013 1334.49,979.792 1333.28,979.579C1329.69,978.944 1326.08,978.385 1322.44,977.909L1321.3,977.759L1319.73,977.568C1309.51,976.339 1299.14,975.758 1288.74,975.935L1286.21,975.993C1285.37,976.023 1284.53,976.052 1283.68,976.081L1281.16,976.2L1278.74,976.342C1275.57,976.547 1272.39,976.825 1269.23,977.182C1268.15,977.303 1267.07,977.431 1265.99,977.568L1268.52,977.26L1269.23,977.182C1272.39,976.828 1275.57,976.549 1278.74,976.342L1281.16,976.2L1283.68,976.081C1284.53,976.052 1285.37,976.023 1286.21,975.993C1297.46,975.668 1308.67,976.237 1319.73,977.568L1321.3,977.759L1322.44,977.909C1326.08,978.387 1329.7,978.946 1333.28,979.579C1334.48,979.791 1335.68,980.011 1336.88,980.242C1339.04,980.655 1341.19,981.095 1343.33,981.56L1340.91,981.045Z"/>
    </g>
    <g transform="matrix(0.189681,0,0,0.193131,-155.478,-178.699)">
        <path d="M1127.96,1285.92C1056.55,1079.91 1343.83,921.822 1455.36,1116.7C1413.72,1183.21 1436.28,1242.11 1482.95,1284.08C1417.4,1148.75 1593.83,1025.69 1685.27,1182.92L1637.45,1197.63C1889.07,1237.46 1775.49,1535.57 1569.4,1434.91L1560.2,1780.7C1356.54,1714.99 1243.84,1716.32 1133.48,1743.91C1246.5,1751.35 1287.2,1775.09 1326.61,1797.25C1355.52,1841.09 1225.2,1796.86 1069.1,1786.22L1050.71,1453.3C1040.81,1479.14 1008.56,1486.78 992.423,1474.84C799.669,1332.09 928.451,1168.11 1085.65,1206.83C1097.74,1257.41 1110.97,1294.26 1127.96,1285.92Z" style="fill:rgb(245,218,182);"/>
        <path d="M1327.65,1798.91C1327.94,1799.4 1328.21,1799.88 1328.46,1800.35L1328.53,1800.47L1328.91,1801.23L1329.23,1801.89C1329.61,1802.74 1329.92,1803.54 1330.14,1804.31L1330.25,1804.67L1330.36,1805.13C1330.46,1805.54 1330.53,1805.93 1330.58,1806.32C1331.09,1810.47 1328.8,1813.15 1324.06,1814.67L1323.37,1814.88C1321.61,1815.38 1319.55,1815.73 1317.2,1815.96L1316.75,1816L1316.55,1816.02C1313.66,1816.26 1310.36,1816.32 1306.68,1816.22C1303.1,1816.12 1299.16,1815.88 1294.89,1815.5C1293.42,1815.38 1291.92,1815.23 1290.37,1815.07L1288.15,1814.84C1287.39,1814.76 1286.63,1814.67 1285.87,1814.59L1281.17,1814.03L1276.27,1813.4C1274.57,1813.17 1272.87,1812.95 1271.17,1812.72L1265.88,1811.97C1264.05,1811.7 1262.23,1811.44 1260.4,1811.17L1256.46,1810.58C1218.89,1804.91 1169.75,1796.22 1115.43,1790.34L1111.31,1789.9L1107.16,1789.47C1108.55,1789.61 1109.93,1789.75 1111.31,1789.9L1115.43,1790.34C1169.76,1796.22 1218.9,1804.91 1256.46,1810.58L1260.4,1811.17C1262.23,1811.44 1264.05,1811.7 1265.88,1811.97L1269.31,1812.45C1271.69,1812.79 1274.01,1813.11 1276.27,1813.4L1281.17,1814.03L1285.87,1814.59C1286.63,1814.67 1287.39,1814.76 1288.15,1814.84L1290.37,1815.07C1291.92,1815.23 1293.42,1815.38 1294.89,1815.5C1299.17,1815.88 1303.11,1816.12 1306.68,1816.22C1310.37,1816.32 1313.67,1816.26 1316.55,1816.02L1316.75,1816L1317.2,1815.96C1319.55,1815.73 1321.61,1815.38 1323.37,1814.88L1324.06,1814.67C1328.8,1813.15 1331.09,1810.47 1330.58,1806.32C1330.53,1805.93 1330.46,1805.54 1330.36,1805.13L1330.25,1804.67L1330.14,1804.31C1329.92,1803.55 1329.61,1802.74 1329.23,1801.89L1328.91,1801.23L1328.53,1800.47L1328.46,1800.35C1328.08,1799.63 1327.64,1798.87 1327.14,1798.09L1327.65,1798.91ZM1000.7,1478.91C1001.98,1479.3 1003.29,1479.6 1004.64,1479.83C1007.47,1480.31 1010.44,1480.45 1013.46,1480.25C1013.96,1480.22 1014.45,1480.17 1014.96,1480.13C1018.78,1479.74 1022.65,1478.81 1026.4,1477.35C1028.66,1476.47 1030.88,1475.4 1033.01,1474.13L1033.92,1473.58C1031.51,1475.09 1028.99,1476.34 1026.4,1477.35C1022.65,1478.81 1018.78,1479.74 1014.96,1480.13C1014.46,1480.18 1013.96,1480.22 1013.46,1480.25C1010.44,1480.45 1007.47,1480.31 1004.64,1479.83C1002.94,1479.54 1001.28,1479.13 999.699,1478.59L1000.7,1478.91ZM1649.46,1455.54C1648.76,1455.53 1648.06,1455.52 1647.36,1455.5L1645.25,1455.42C1643.63,1455.36 1641.99,1455.27 1640.35,1455.14L1638.85,1455.03L1637.58,1454.92C1635.12,1454.7 1632.65,1454.42 1630.15,1454.08L1632.34,1454.37C1634.1,1454.58 1635.85,1454.77 1637.58,1454.92L1638.85,1455.03L1640.35,1455.14C1641.99,1455.26 1643.63,1455.36 1645.25,1455.42L1647.36,1455.5L1649.46,1455.54ZM1321.97,1794.65C1317.33,1792.04 1312.62,1789.41 1307.75,1786.81L1305.3,1785.51C1312.7,1789.41 1319.67,1793.35 1326.61,1797.25L1321.97,1794.65ZM1081.93,1787.17C1083.35,1787.28 1084.76,1787.4 1086.17,1787.52L1081.93,1787.17L1077.67,1786.84C1076.25,1786.73 1074.82,1786.62 1073.39,1786.52L1077.67,1786.84L1081.93,1787.17ZM1550.44,1777.58C1547.48,1776.64 1544.55,1775.72 1541.64,1774.82C1533.39,1772.25 1525.29,1769.8 1517.35,1767.46L1512.76,1766.12L1508.2,1764.8C1509.71,1765.23 1511.23,1765.67 1512.76,1766.12L1517.35,1767.46C1525.3,1769.8 1533.4,1772.25 1541.64,1774.82C1546.15,1776.22 1550.7,1777.66 1555.3,1779.13L1550.44,1777.58ZM1302.81,1784.21C1300.93,1783.23 1299.02,1782.26 1297.07,1781.3L1295.14,1780.34L1294.25,1779.91C1280.35,1773.17 1264.54,1766.73 1244.74,1761.11L1241.59,1760.24C1239.04,1759.54 1236.42,1758.85 1233.73,1758.18L1231.29,1757.58C1229.41,1757.13 1227.5,1756.68 1225.55,1756.24C1222.41,1755.53 1219.18,1754.84 1215.86,1754.17L1213.14,1753.64L1210.38,1753.11C1206.2,1752.32 1201.86,1751.57 1197.37,1750.85L1195.92,1750.61L1192.88,1750.14L1189.81,1749.68C1190.89,1749.84 1191.96,1750 1193.02,1750.16L1195.92,1750.61L1197.37,1750.85C1201.87,1751.57 1206.2,1752.32 1210.38,1753.11C1211.31,1753.28 1212.23,1753.46 1213.14,1753.64L1215.86,1754.17C1219.18,1754.84 1222.41,1755.53 1225.55,1756.24C1227.5,1756.68 1229.41,1757.13 1231.29,1757.58L1233.73,1758.18C1235.07,1758.52 1236.4,1758.86 1237.71,1759.2L1241.59,1760.24L1244.74,1761.11C1264.55,1766.73 1280.35,1773.17 1294.25,1779.91L1295.14,1780.34L1297.07,1781.3C1298.16,1781.84 1299.23,1782.37 1300.29,1782.91L1302.81,1784.21ZM1177,1747.96C1179.2,1748.23 1181.37,1748.51 1183.5,1748.8L1180.27,1748.37L1177,1747.96ZM1499.17,1762.23C1488.2,1759.15 1477.51,1756.29 1467.09,1753.64L1464.33,1752.93C1462.92,1752.58 1461.51,1752.23 1460.11,1751.88L1456.39,1750.96C1450.65,1749.56 1445,1748.22 1439.44,1746.95L1435.39,1746.03C1442.26,1747.57 1449.26,1749.22 1456.39,1750.96L1460.11,1751.88C1461.51,1752.23 1462.92,1752.58 1464.33,1752.93L1467.09,1753.64C1478.93,1756.65 1491.12,1759.93 1503.67,1763.5L1499.17,1762.23ZM1159.83,1746.06C1158.64,1745.94 1157.44,1745.83 1156.23,1745.71L1152.58,1745.38C1148.9,1745.06 1145.14,1744.75 1141.29,1744.46C1145.14,1744.75 1148.9,1745.06 1152.58,1745.38L1156.23,1745.71C1158.65,1745.94 1161.02,1746.17 1163.37,1746.41L1159.83,1746.06ZM1431.37,1745.13C1428.7,1744.54 1426.04,1743.97 1423.4,1743.41L1419.46,1742.58C1422.08,1743.12 1424.72,1743.68 1427.37,1744.26L1431.37,1745.13ZM1411.66,1740.99C1410.37,1740.73 1409.09,1740.48 1407.8,1740.22L1403.96,1739.48C1402.69,1739.24 1401.42,1739 1400.15,1738.76L1396.37,1738.06L1394.06,1737.65C1392.32,1737.33 1390.59,1737.03 1388.87,1736.73L1385.16,1736.09C1388.1,1736.59 1391.07,1737.11 1394.06,1737.65L1396.37,1738.06L1396.63,1738.11C1399.06,1738.55 1401.5,1739.01 1403.96,1739.48L1407.8,1740.22C1410.36,1740.73 1412.94,1741.24 1415.55,1741.77L1411.66,1740.99ZM1141.09,1742.06C1192.16,1729.87 1244.16,1723.5 1305.83,1726.95C1310.03,1727.19 1314.28,1727.47 1318.57,1727.8L1318.87,1727.82L1319.34,1727.86C1328.64,1728.58 1338.16,1729.52 1347.95,1730.69L1349.31,1730.86L1351.31,1731.1C1359.94,1732.18 1368.77,1733.44 1377.8,1734.88L1374.16,1734.31C1366.39,1733.1 1358.78,1732.03 1351.31,1731.1L1349.31,1730.86L1347.95,1730.69C1338.17,1729.52 1328.64,1728.58 1319.34,1727.86L1318.87,1727.82L1318.57,1727.8C1314.28,1727.47 1310.03,1727.19 1305.83,1726.95C1244.16,1723.5 1192.16,1729.87 1141.09,1742.06L1138.5,1742.68L1135.53,1743.41L1138.5,1742.68L1141.09,1742.06ZM997.591,1477.78C996.997,1477.53 996.416,1477.25 995.847,1476.96C995.25,1476.65 994.667,1476.32 994.1,1475.97L993.249,1475.42C994.078,1475.98 994.946,1476.5 995.847,1476.96C996.415,1477.25 996.997,1477.53 997.591,1477.78ZM992.189,1474.66C990.855,1473.67 989.537,1472.68 988.244,1471.7C985.72,1469.78 983.254,1467.86 980.856,1465.94C978.89,1464.37 976.962,1462.79 975.077,1461.22L973.266,1459.71C970.825,1457.64 968.448,1455.58 966.126,1453.51L964.559,1452.1L962.886,1450.58C963.952,1451.55 965.032,1452.53 966.126,1453.51C968.442,1455.58 970.822,1457.64 973.266,1459.71L975.077,1461.22C976.966,1462.8 978.892,1464.37 980.856,1465.94C983.263,1467.86 985.725,1469.78 988.244,1471.7C989.536,1472.68 990.854,1473.67 992.189,1474.66ZM1035.63,1472.45C1036.59,1471.78 1037.53,1471.07 1038.45,1470.31L1039.1,1469.76L1039.5,1469.41C1040.46,1468.57 1041.38,1467.68 1042.26,1466.75L1043.01,1465.94L1043.73,1465.11C1043.44,1465.45 1043.15,1465.79 1042.84,1466.11L1042.26,1466.75C1041.38,1467.68 1040.46,1468.57 1039.5,1469.41L1039.1,1469.76L1038.45,1470.31C1037.53,1471.07 1036.59,1471.78 1035.63,1472.45ZM1045.58,1462.74C1046.14,1461.98 1046.67,1461.19 1047.18,1460.38L1047.65,1459.62L1048.22,1458.62C1047.89,1459.22 1047.54,1459.81 1047.18,1460.38C1046.67,1461.19 1046.14,1461.98 1045.58,1462.74C1045.21,1463.25 1044.83,1463.76 1044.44,1464.25L1045.12,1463.37L1045.58,1462.74ZM1050.26,1454.41C1049.81,1455.51 1049.31,1456.57 1048.77,1457.6L1049.3,1456.56C1049.81,1455.51 1050.28,1454.42 1050.71,1453.3L1050.26,1454.41ZM1625.73,1453.42C1609.44,1450.75 1592.23,1445.51 1574.3,1437.24L1576.74,1438.35C1594.61,1446.34 1611.73,1451.33 1627.94,1453.77L1625.73,1453.42ZM1690.48,1450.04C1688.43,1450.64 1686.35,1451.2 1684.24,1451.7C1681.77,1452.3 1679.26,1452.84 1676.71,1453.3L1675.56,1453.51C1674.92,1453.61 1674.27,1453.72 1673.63,1453.83L1671.69,1454.12C1671.04,1454.21 1670.39,1454.3 1669.73,1454.39L1667.82,1454.62C1664.19,1455.04 1660.51,1455.32 1656.76,1455.45L1655.68,1455.49L1653.62,1455.53L1651.55,1455.55C1652.79,1455.55 1654.03,1455.53 1655.26,1455.5L1655.68,1455.49L1656.76,1455.45C1660.51,1455.31 1664.2,1455.03 1667.82,1454.62L1669.73,1454.39C1670.39,1454.3 1671.04,1454.21 1671.69,1454.12L1673.63,1453.83C1674.27,1453.72 1674.92,1453.61 1675.56,1453.51L1676.71,1453.3C1679.26,1452.84 1681.77,1452.3 1684.24,1451.7C1685.73,1451.35 1687.21,1450.96 1688.66,1450.56L1690.48,1450.04ZM1694.38,1448.82C1696.41,1448.15 1698.41,1447.44 1700.38,1446.68C1703.48,1445.49 1706.5,1444.19 1709.45,1442.79C1706.5,1444.19 1703.48,1445.49 1700.38,1446.68C1698.4,1447.44 1696.4,1448.15 1694.38,1448.82ZM1714.05,1440.48C1716.26,1439.31 1718.42,1438.09 1720.55,1436.81L1722.07,1435.88C1719.47,1437.5 1716.8,1439.03 1714.05,1440.48ZM1725.05,1433.95C1725.54,1433.62 1726.03,1433.29 1726.52,1432.96L1727.17,1432.51C1727.92,1431.99 1728.67,1431.46 1729.41,1430.92L1730.83,1429.88C1733.18,1428.12 1735.46,1426.29 1737.67,1424.39L1738.98,1423.24C1736.37,1425.55 1733.65,1427.77 1730.83,1429.88L1729.41,1430.92C1728.67,1431.46 1727.93,1431.99 1727.17,1432.51L1726.52,1432.96C1726.03,1433.29 1725.54,1433.62 1725.05,1433.95ZM958.002,1446C956.178,1444.26 954.397,1442.51 952.655,1440.76C951.112,1439.2 949.603,1437.65 948.123,1436.09C946.429,1434.31 944.779,1432.52 943.168,1430.73L941.805,1429.21L941.459,1428.81C939.778,1426.91 938.148,1425 936.568,1423.1L935.312,1421.58C937.281,1423.99 939.33,1426.4 941.459,1428.81C942.024,1429.45 942.594,1430.09 943.168,1430.73C944.775,1432.52 946.426,1434.31 948.123,1436.09C949.6,1437.65 951.111,1439.2 952.655,1440.76C954.9,1443.01 957.217,1445.27 959.608,1447.53L958.002,1446ZM1743.2,1419.32C1742.66,1419.85 1742.11,1420.37 1741.55,1420.89L1742.82,1419.69L1744.06,1418.48L1743.2,1419.32ZM1746.49,1416.01C1750.08,1412.26 1753.42,1408.31 1756.5,1404.19C1753.08,1408.77 1749.34,1413.13 1745.28,1417.25L1746.49,1416.01ZM933.049,1418.76C931.814,1417.2 930.611,1415.64 929.439,1414.08C926.965,1410.78 924.636,1407.48 922.449,1404.19L921.871,1403.32L920.884,1401.81C921.396,1402.6 921.917,1403.39 922.449,1404.19C924.635,1407.48 926.964,1410.77 929.439,1414.08C930.609,1415.63 931.812,1417.2 933.049,1418.76ZM918.413,1397.87C917.568,1396.49 916.749,1395.11 915.954,1393.73C915.164,1392.36 914.399,1391 913.657,1389.63C911.082,1384.89 908.799,1380.18 906.802,1375.5L906.504,1374.8L905.888,1373.32C906.185,1374.05 906.488,1374.77 906.802,1375.5C908.802,1380.18 911.083,1384.89 913.657,1389.63C914.399,1391 915.164,1392.37 915.954,1393.73C916.749,1395.11 917.569,1396.49 918.413,1397.87L918.971,1398.78L919.449,1399.54L918.971,1398.78L918.413,1397.87ZM1759.49,1400.02L1760.45,1398.6C1760.76,1398.12 1761.07,1397.65 1761.39,1397.17L1762.29,1395.76C1762.73,1395.05 1763.17,1394.35 1763.6,1393.63C1764.08,1392.84 1764.55,1392.04 1765.01,1391.24C1769.5,1383.4 1773.13,1375.13 1775.84,1366.59L1776.34,1364.98C1773.59,1374.09 1769.78,1382.91 1765.01,1391.24C1764.55,1392.04 1764.08,1392.84 1763.6,1393.63C1763.17,1394.34 1762.73,1395.05 1762.29,1395.76C1761.69,1396.71 1761.07,1397.66 1760.45,1398.6L1759.49,1400.02C1759.17,1400.49 1758.84,1400.95 1758.51,1401.42L1759.49,1400.02ZM904.712,1370.36C904.49,1369.79 904.273,1369.22 904.061,1368.64C902.226,1363.71 900.702,1358.82 899.477,1353.98L899.196,1352.85C899.082,1352.37 898.967,1351.89 898.853,1351.41L898.715,1350.8C897.905,1347.24 897.256,1343.7 896.765,1340.21C896.491,1338.26 896.265,1336.32 896.087,1334.39L895.966,1333C896.158,1335.38 896.423,1337.79 896.765,1340.21C897.256,1343.7 897.904,1347.24 898.715,1350.8L898.853,1351.41C898.967,1351.89 899.082,1352.37 899.196,1352.85L899.477,1353.98C900.703,1358.82 902.226,1363.71 904.061,1368.64C904.456,1369.71 904.867,1370.77 905.291,1371.84L904.712,1370.36ZM1776.91,1363.02C1779.69,1353.27 1781.26,1343.22 1781.54,1333.1L1781.57,1331.47C1781.43,1342.14 1779.84,1352.75 1776.91,1363.02ZM895.705,1328.84L895.776,1330.22L895.705,1328.84ZM1781.57,1328.23L1781.58,1329.85L1781.57,1328.23ZM895.584,1323.36L895.59,1324.72L895.597,1325.12L895.59,1324.72L895.586,1323.65C895.584,1323.1 895.587,1322.55 895.595,1321.99L895.584,1323.36ZM1781.17,1320.11C1780.92,1317.16 1780.56,1314.21 1780.07,1311.26L1779.93,1310.39L1779.64,1308.78C1779.8,1309.6 1779.94,1310.43 1780.07,1311.26C1780.64,1314.74 1781.05,1318.24 1781.29,1321.73L1781.17,1320.11ZM895.698,1318.49C895.794,1316.29 895.954,1314.11 896.177,1311.94C896.245,1311.28 896.319,1310.62 896.397,1309.96L896.564,1308.64L896.639,1308.11C896.794,1306.98 896.966,1305.85 897.155,1304.73C897.291,1303.93 897.435,1303.14 897.588,1302.34L897.624,1302.15L897.83,1301.12C897.934,1300.61 898.042,1300.1 898.152,1299.59L898.439,1298.32C898.536,1297.9 898.637,1297.48 898.739,1297.05L899.055,1295.79C898.839,1296.63 898.633,1297.48 898.439,1298.32L898.152,1299.59C898.041,1300.1 897.933,1300.61 897.83,1301.12L897.624,1302.15L897.382,1303.44L897.155,1304.73L896.943,1306.03C896.877,1306.46 896.811,1306.9 896.746,1307.33L896.564,1308.64L896.397,1309.96C896.317,1310.62 896.243,1311.28 896.177,1311.94C895.955,1314.11 895.795,1316.28 895.698,1318.49C895.666,1319.2 895.641,1319.92 895.621,1320.64L895.663,1319.29L895.698,1318.49ZM1482.95,1284.08C1482.16,1282.46 1481.41,1280.85 1480.69,1279.22L1479.99,1277.6C1480.68,1279.22 1481.41,1280.84 1482.17,1282.46L1482.95,1284.08ZM1113.95,1282.42C1114.34,1282.83 1114.73,1283.2 1115.13,1283.55L1114.61,1283.08L1113.95,1282.42ZM1117.63,1285.42C1120.92,1287.42 1124.35,1287.69 1127.96,1285.92L1127.96,1285.92L1127.72,1285.22C1126.63,1282.03 1125.62,1278.86 1124.7,1275.7L1124.24,1274.13L1123.59,1271.78C1123.95,1273.09 1124.32,1274.39 1124.7,1275.7C1125.62,1278.87 1126.62,1282.04 1127.72,1285.22L1127.96,1285.92L1127.96,1285.92C1124.35,1287.69 1120.92,1287.42 1117.63,1285.42C1117.29,1285.22 1116.95,1284.99 1116.61,1284.75L1117.29,1285.22L1117.63,1285.42ZM901.339,1288.08C901.528,1287.52 901.721,1286.96 901.918,1286.41C902.696,1284.21 903.543,1282.05 904.459,1279.91C904.751,1279.22 905.049,1278.54 905.356,1277.86L906.01,1276.44C905.473,1277.58 904.955,1278.74 904.459,1279.91C903.545,1282.04 902.697,1284.21 901.918,1286.41C901.544,1287.46 901.188,1288.51 900.847,1289.58L901.339,1288.08ZM1111.54,1279.61C1109.75,1277.28 1108.01,1274.44 1106.3,1271.15L1105.6,1269.78C1105.84,1270.25 1106.07,1270.7 1106.3,1271.15C1108.01,1274.44 1109.75,1277.28 1111.54,1279.61C1111.9,1280.09 1112.27,1280.54 1112.64,1280.98L1111.99,1280.19L1111.54,1279.61ZM1778.63,1303.95C1778.46,1303.18 1778.27,1302.41 1778.08,1301.65C1777.19,1298.14 1776.13,1294.66 1774.9,1291.21C1774.04,1288.81 1773.1,1286.44 1772.07,1284.08C1770.61,1280.74 1768.98,1277.44 1767.18,1274.19L1766.32,1272.68C1768.47,1276.42 1770.39,1280.22 1772.07,1284.08C1772.87,1285.92 1773.62,1287.77 1774.32,1289.63L1774.9,1291.21C1776.13,1294.66 1777.19,1298.14 1778.08,1301.65C1778.4,1302.95 1778.71,1304.25 1778.99,1305.55L1778.63,1303.95ZM1478.01,1272.76C1477.17,1270.61 1476.4,1268.46 1475.68,1266.33L1475.15,1264.73C1476.18,1267.93 1477.35,1271.15 1478.65,1274.37L1478.01,1272.76ZM908.092,1272.23C907.61,1273.15 907.141,1274.09 906.685,1275.02L907.379,1273.62C907.689,1273.01 908.004,1272.39 908.329,1271.78L908.824,1270.85L909.576,1269.47C909.322,1269.93 909.072,1270.39 908.824,1270.85L908.092,1272.23ZM1477.74,1279.22C1476.5,1278.02 1475.27,1276.81 1474.07,1275.59C1472.31,1273.79 1470.59,1271.97 1468.92,1270.12L1467.92,1269C1469.9,1271.24 1471.95,1273.43 1474.07,1275.59C1475.27,1276.81 1476.49,1278.03 1477.74,1279.22ZM1103.97,1266.33C1102.92,1264.01 1101.88,1261.52 1100.85,1258.87C1099.52,1255.43 1098.2,1251.72 1096.91,1247.79L1096.88,1247.7L1096.91,1247.79C1098.2,1251.72 1099.52,1255.43 1100.85,1258.87C1101.88,1261.52 1102.92,1264.01 1103.97,1266.33L1104.22,1266.88L1104.84,1268.19L1104.22,1266.88L1103.97,1266.33ZM1121.3,1262.45L1121.83,1264.78L1122.38,1267.11C1122,1265.55 1121.64,1264 1121.3,1262.45ZM1474.16,1261.53C1469.43,1245.58 1467.91,1230.02 1469.04,1215.3L1469.16,1213.83C1467.77,1229.46 1469.37,1246.08 1474.65,1263.13L1474.16,1261.53ZM1464.02,1264.46C1463.65,1264.02 1463.29,1263.57 1462.93,1263.13L1462.14,1262.15L1461.6,1261.46C1460.7,1260.32 1459.82,1259.18 1458.96,1258.02L1458.54,1257.46L1457.67,1256.27L1456.96,1255.27C1456.62,1254.8 1456.28,1254.32 1455.95,1253.84C1455.4,1253.05 1454.86,1252.26 1454.33,1251.46L1453.53,1250.24C1454.31,1251.45 1455.12,1252.65 1455.95,1253.84C1456.28,1254.32 1456.62,1254.8 1456.96,1255.27L1457.67,1256.27L1458.54,1257.46L1458.96,1258.02C1459.82,1259.17 1460.7,1260.32 1461.6,1261.46L1462.14,1262.15L1462.93,1263.13C1463.61,1263.96 1464.29,1264.78 1464.98,1265.6L1464.02,1264.46ZM1120.33,1257.82C1119.91,1255.69 1119.53,1253.57 1119.19,1251.46C1118.78,1248.98 1118.43,1246.51 1118.13,1244.07C1117.82,1241.57 1117.56,1239.08 1117.36,1236.62C1116.8,1229.96 1116.6,1223.39 1116.75,1216.93C1116.8,1214.82 1116.88,1212.73 1117,1210.63L1116.89,1212.81C1116.86,1213.54 1116.83,1214.27 1116.8,1215L1116.74,1217.19C1116.61,1223.58 1116.8,1230.06 1117.36,1236.62C1117.56,1239.09 1117.82,1241.57 1118.13,1244.07C1118.43,1246.52 1118.78,1248.99 1119.19,1251.46C1119.66,1254.34 1120.19,1257.23 1120.8,1260.13L1120.33,1257.82ZM1093.04,1235.21L1093.67,1237.38L1094.31,1239.52C1093.88,1238.1 1093.46,1236.67 1093.04,1235.21ZM911.945,1265.42C912.278,1264.88 912.616,1264.33 912.962,1263.79L913.618,1262.77L914.288,1261.75C919.141,1254.46 924.846,1247.68 931.291,1241.49L931.84,1240.97L932.239,1240.59C938.177,1235.01 944.727,1229.92 951.812,1225.39C952.924,1224.68 954.05,1223.98 955.191,1223.3L956.622,1222.45C957.702,1221.82 958.794,1221.2 959.9,1220.59L960.995,1219.99L962.126,1219.39C962.738,1219.07 963.353,1218.75 963.974,1218.43L965.482,1217.67L967.003,1216.93L968.536,1216.2C967.843,1216.53 967.154,1216.86 966.469,1217.19L965.482,1217.67L963.974,1218.43C963.354,1218.75 962.737,1219.07 962.126,1219.39L960.995,1219.99L959.9,1220.59C958.307,1221.47 956.737,1222.37 955.191,1223.3C954.052,1223.98 952.926,1224.68 951.812,1225.39C944.728,1229.92 938.176,1235.01 932.239,1240.59L931.84,1240.97L931.291,1241.49C924.842,1247.68 919.138,1254.46 914.288,1261.75L913.618,1262.77L912.962,1263.79C912.339,1264.77 911.73,1265.76 911.137,1266.76L911.945,1265.42ZM970.651,1215.24C972.327,1214.49 974.023,1213.76 975.743,1213.06L976.379,1212.81L977.982,1212.17C982.272,1210.51 986.681,1209.02 991.2,1207.71L992.9,1207.23C987.788,1208.65 982.811,1210.3 977.982,1212.17L976.379,1212.81L975.743,1213.06C974.027,1213.76 972.331,1214.48 970.651,1215.24ZM1469.49,1210.63L1469.45,1210.91L1469.3,1212.37C1469.36,1211.79 1469.42,1211.21 1469.49,1210.63L1469.63,1209.46L1469.82,1208.02C1469.7,1208.88 1469.59,1209.76 1469.49,1210.63ZM1117.3,1206.3C1117.59,1202.7 1117.99,1199.13 1118.49,1195.61C1117.89,1199.84 1117.44,1204.13 1117.14,1208.46L1117.3,1206.3ZM1470.5,1203.72C1470.35,1204.54 1470.22,1205.35 1470.09,1206.17L1470.25,1205.15L1470.5,1203.72ZM1090.54,1226.21C1089.3,1221.58 1088.08,1216.78 1086.86,1211.83L1085.65,1206.83C1087.66,1215.24 1089.7,1223.27 1091.79,1230.77L1090.54,1226.21ZM1079.59,1205.43L1081.61,1205.88L1083.54,1206.32C1082.22,1206.01 1080.91,1205.72 1079.59,1205.43ZM1072.83,1204.11L1071.56,1203.88L1069.56,1203.55C1063.32,1202.54 1057.15,1201.85 1051.05,1201.46L1049.84,1201.38L1047.89,1201.28L1045.95,1201.2C1046.78,1201.23 1047.61,1201.26 1048.43,1201.31L1049.84,1201.38L1051.05,1201.46C1057.14,1201.85 1063.32,1202.54 1069.56,1203.55C1070.65,1203.72 1071.74,1203.91 1072.83,1204.11L1073.56,1204.24L1075.57,1204.61C1074.65,1204.44 1073.74,1204.27 1072.83,1204.11ZM1764.54,1269.68C1764.23,1269.19 1763.92,1268.69 1763.61,1268.19L1762.65,1266.72L1762.39,1266.33C1748.53,1245.43 1726.78,1226.99 1695.96,1213.87C1695.06,1213.48 1694.15,1213.1 1693.24,1212.73C1681.52,1207.94 1668.54,1203.91 1654.22,1200.78L1651.5,1200.2L1649.82,1199.86C1647.64,1199.42 1645.42,1199 1643.17,1198.6L1640.33,1198.1C1643.56,1198.65 1646.73,1199.23 1649.82,1199.86L1651.5,1200.2L1654.22,1200.78C1668.53,1203.91 1681.52,1207.94 1693.24,1212.73C1694.15,1213.1 1695.06,1213.48 1695.96,1213.87C1726.78,1226.99 1748.54,1245.43 1762.39,1266.33L1762.65,1266.72L1763.4,1267.88C1764.1,1268.97 1764.78,1270.07 1765.44,1271.18L1764.54,1269.68ZM998.057,1205.89C1001.79,1204.99 1005.59,1204.2 1009.45,1203.55C1010.37,1203.39 1011.3,1203.24 1012.22,1203.1L1014.03,1202.83C1015.24,1202.66 1016.46,1202.5 1017.67,1202.35L1019.51,1202.14C1023.11,1201.74 1026.75,1201.45 1030.43,1201.28L1030.67,1201.27L1032.25,1201.2C1034.88,1201.1 1037.52,1201.06 1040.17,1201.07L1042.1,1201.1L1043.76,1201.13L1042.1,1201.1C1038.79,1201.04 1035.51,1201.08 1032.25,1201.2L1030.67,1201.27L1030.43,1201.28C1026.75,1201.45 1023.11,1201.74 1019.51,1202.14L1017.67,1202.35C1016.45,1202.5 1015.24,1202.66 1014.03,1202.83L1012.22,1203.1C1011.29,1203.24 1010.37,1203.39 1009.45,1203.55C1004.99,1204.31 1000.61,1205.24 996.328,1206.32L998.057,1205.89ZM1470.77,1202.2C1472.11,1195.16 1474.06,1188.37 1476.55,1181.87L1476.89,1180.99C1477.46,1179.55 1478.05,1178.13 1478.67,1176.72C1478.05,1178.13 1477.46,1179.55 1476.89,1180.99L1476.55,1181.87C1474.06,1188.36 1472.11,1195.16 1470.77,1202.2ZM1120.15,1185.82C1120.34,1184.85 1120.54,1183.88 1120.75,1182.92C1121.33,1180.21 1121.98,1177.53 1122.68,1174.86C1121.98,1177.52 1121.33,1180.21 1120.75,1182.92C1120.54,1183.88 1120.34,1184.85 1120.15,1185.82L1119.88,1187.2L1119.64,1188.5L1119.88,1187.2L1120.15,1185.82ZM1479.51,1174.86C1480.29,1173.16 1481.11,1171.49 1481.96,1169.84L1482.27,1169.24L1482.91,1168.04C1484.66,1164.81 1486.55,1161.68 1488.57,1158.66L1488.62,1158.6C1490.87,1155.23 1493.3,1151.99 1495.87,1148.9C1493.3,1151.99 1490.87,1155.23 1488.62,1158.6C1486.58,1161.64 1484.67,1164.79 1482.91,1168.04L1482.27,1169.24L1481.96,1169.84C1481.11,1171.48 1480.29,1173.16 1479.51,1174.86ZM1124.24,1169.29C1124.61,1168.07 1124.98,1166.85 1125.37,1165.63C1125.88,1164.04 1126.41,1162.46 1126.96,1160.89L1127.66,1158.93C1126.86,1161.15 1126.09,1163.38 1125.37,1165.63C1124.99,1166.85 1124.61,1168.07 1124.24,1169.29C1123.89,1170.47 1123.55,1171.65 1123.22,1172.84L1123.79,1170.82L1124.24,1169.29ZM1131.02,1150.38C1131.71,1148.75 1132.41,1147.13 1133.14,1145.53L1132.3,1147.41C1132.02,1148.04 1131.75,1148.68 1131.47,1149.31L1131.02,1150.38ZM1685.27,1182.92C1680.86,1175.34 1676.26,1168.41 1671.49,1162.1L1671.07,1161.55C1670.69,1161.06 1670.31,1160.57 1669.93,1160.07L1668.94,1158.8C1666.94,1156.29 1664.92,1153.87 1662.87,1151.55L1661.81,1150.38C1661.42,1149.94 1661.03,1149.51 1660.63,1149.08L1659.44,1147.81C1659.05,1147.39 1658.65,1146.98 1658.25,1146.56L1657.25,1145.53C1656.78,1145.06 1656.32,1144.59 1655.86,1144.13L1654.65,1142.95C1655.52,1143.79 1656.39,1144.65 1657.25,1145.53L1658.25,1146.56C1658.65,1146.98 1659.05,1147.39 1659.44,1147.81L1660.63,1149.08C1661.03,1149.51 1661.42,1149.94 1661.81,1150.38L1662.87,1151.55C1664.91,1153.87 1666.94,1156.28 1668.94,1158.8L1669.93,1160.07C1670.31,1160.57 1670.69,1161.06 1671.07,1161.55L1671.49,1162.1C1675.88,1167.91 1680.13,1174.24 1684.22,1181.13L1685.27,1182.92ZM1135.79,1139.95C1135.29,1140.96 1134.8,1141.98 1134.32,1143L1134.89,1141.8L1135.79,1139.95ZM1651.01,1139.53L1649.78,1138.43L1648.56,1137.36C1649.06,1137.79 1649.55,1138.23 1650.05,1138.68C1650.78,1139.32 1651.5,1139.98 1652.23,1140.65L1651.01,1139.53ZM1137.65,1136.28C1139.87,1132.03 1142.25,1127.88 1144.76,1123.82L1145.85,1122.09C1142.56,1127.27 1139.51,1132.61 1136.71,1138.11L1137.65,1136.28ZM1647.29,1136.28C1646.07,1135.25 1644.84,1134.26 1643.61,1133.29L1642.36,1132.32L1641.12,1131.38C1641.53,1131.69 1641.95,1132 1642.36,1132.32L1643.61,1133.29C1644.84,1134.25 1646.07,1135.25 1647.29,1136.28ZM1638.61,1129.55C1637.58,1128.82 1636.55,1128.12 1635.52,1127.43L1634.82,1126.97C1634.4,1126.69 1633.98,1126.42 1633.56,1126.15L1632.29,1125.35C1633.37,1126.02 1634.44,1126.71 1635.52,1127.43C1636.13,1127.84 1636.74,1128.25 1637.35,1128.67L1638.61,1129.55ZM1497.13,1147.41C1497.64,1146.82 1498.16,1146.23 1498.68,1145.65C1507.3,1136.04 1517.41,1127.99 1528.51,1121.93C1529.25,1121.53 1529.99,1121.13 1530.73,1120.75L1531.85,1120.18L1532.98,1119.62L1531.85,1120.18L1530.73,1120.75C1529.99,1121.13 1529.25,1121.53 1528.51,1121.93C1517.41,1127.99 1507.3,1136.04 1498.68,1145.65C1498.16,1146.23 1497.64,1146.82 1497.13,1147.41ZM1451.96,1247.79C1444.07,1235.13 1438.38,1221.55 1435.54,1207.2L1435.48,1206.94L1435.22,1205.54C1431.91,1187.41 1433.15,1168.06 1440.21,1147.81C1441.33,1144.6 1442.59,1141.37 1444.01,1138.11L1444.39,1137.23L1444.82,1136.28C1447.29,1130.8 1450.19,1125.26 1453.54,1119.67L1454.44,1118.19C1450.7,1124.29 1447.5,1130.32 1444.82,1136.28L1444.39,1137.23L1444.01,1138.11C1442.59,1141.37 1441.33,1144.6 1440.21,1147.81C1433.15,1168.06 1431.91,1187.41 1435.22,1205.54L1435.48,1206.94L1435.54,1207.2C1438.47,1222.01 1444.44,1236.01 1452.74,1249.02L1451.96,1247.79ZM1535.25,1118.55C1536.3,1118.07 1537.37,1117.6 1538.44,1117.15L1538.7,1117.04L1538.88,1116.97C1539.98,1116.51 1541.09,1116.07 1542.2,1115.66L1543.38,1115.22C1541.87,1115.77 1540.36,1116.35 1538.88,1116.97L1538.7,1117.04L1538.44,1117.15C1536.98,1117.76 1535.54,1118.4 1534.11,1119.08L1535.25,1118.55ZM1149.22,1116.97C1149.6,1116.4 1149.99,1115.84 1150.38,1115.29L1151.55,1113.62C1150.37,1115.28 1149.21,1116.96 1148.08,1118.66L1149.22,1116.97ZM1545.75,1114.4C1548.52,1113.47 1551.34,1112.66 1554.19,1111.98L1555.42,1111.69C1551.74,1112.53 1548.12,1113.57 1544.56,1114.8L1545.75,1114.4ZM1454.02,1114.39L1452.66,1112.12L1451.29,1109.88L1452.66,1112.12L1454.02,1114.39L1455.01,1116.1L1454.02,1114.39ZM1565.34,1109.94L1564.09,1110.11L1562.84,1110.29C1563.67,1110.16 1564.51,1110.05 1565.34,1109.94ZM1629.74,1123.81C1618.11,1117 1606.2,1112.72 1594.37,1110.66L1593.51,1110.51L1592.26,1110.31C1589.65,1109.92 1587.05,1109.63 1584.45,1109.44C1579.29,1109.08 1574.17,1109.12 1569.12,1109.55L1567.86,1109.67C1568.28,1109.62 1568.7,1109.59 1569.12,1109.55C1574.17,1109.12 1579.29,1109.08 1584.45,1109.44C1587.05,1109.63 1589.65,1109.92 1592.26,1110.31L1593.51,1110.51L1594.37,1110.66C1605.77,1112.64 1617.24,1116.69 1628.46,1123.08L1629.74,1123.81ZM1448.48,1105.46C1447.55,1104.03 1446.6,1102.63 1445.64,1101.24L1444.19,1099.16C1431.07,1080.61 1416.12,1066.02 1400,1055.01L1398.2,1053.8C1415.01,1064.94 1430.58,1079.92 1444.19,1099.16L1445.64,1101.24C1446.6,1102.62 1447.54,1104.03 1448.48,1105.46ZM1394.58,1051.47C1390.75,1049.08 1386.85,1046.88 1382.9,1044.87L1381.64,1044.23C1381.01,1043.92 1380.38,1043.62 1379.76,1043.31L1378.71,1042.82C1375.27,1041.19 1371.79,1039.71 1368.28,1038.36L1366.39,1037.65C1365.75,1037.42 1365.1,1037.19 1364.46,1036.96L1363.96,1036.78C1362.84,1036.39 1361.71,1036.01 1360.57,1035.64L1358.62,1035.03C1360.41,1035.58 1362.18,1036.16 1363.96,1036.78L1364.46,1036.96C1365.1,1037.19 1365.75,1037.42 1366.39,1037.65L1368.28,1038.36C1371.79,1039.71 1375.27,1041.19 1378.71,1042.82L1379.76,1043.31C1380.38,1043.62 1381.01,1043.92 1381.64,1044.23L1382.9,1044.87C1387.48,1047.2 1391.98,1049.78 1396.4,1052.62L1394.58,1051.47ZM1352.74,1033.34C1352.08,1033.16 1351.42,1033 1350.76,1032.83C1348.44,1032.25 1346.11,1031.72 1343.77,1031.25L1342.84,1031.06L1340.85,1030.68C1341.82,1030.86 1342.79,1031.05 1343.77,1031.25C1347.43,1031.99 1351.08,1032.86 1354.7,1033.87L1352.74,1033.34ZM1154.6,1109.45C1161,1100.92 1168.07,1092.92 1175.68,1085.53C1177.55,1083.71 1179.46,1081.93 1181.39,1080.19L1181.42,1080.16C1182.88,1078.85 1184.35,1077.56 1185.84,1076.29L1187.39,1074.99C1187.91,1074.56 1188.43,1074.13 1188.95,1073.7L1189.96,1072.88C1192.77,1070.61 1195.63,1068.42 1198.55,1066.3C1200.82,1064.65 1203.13,1063.05 1205.46,1061.5C1209.83,1058.58 1214.3,1055.84 1218.86,1053.28C1238.54,1042.21 1259.84,1034.45 1281.58,1030.68L1282.47,1030.53L1283.68,1030.33C1286.46,1029.88 1289.24,1029.49 1292.03,1029.18L1292.52,1029.12L1294.11,1028.95C1296.94,1028.66 1299.77,1028.44 1302.61,1028.29L1304.63,1028.2L1304.79,1028.19C1306.08,1028.14 1307.38,1028.1 1308.67,1028.08L1310.69,1028.06C1317,1028.02 1323.3,1028.34 1329.57,1029.03C1332.41,1029.35 1335.24,1029.73 1338.06,1030.2C1335.24,1029.73 1332.41,1029.35 1329.57,1029.03C1323.3,1028.34 1317,1028.02 1310.69,1028.06L1308.67,1028.08C1307.38,1028.1 1306.08,1028.14 1304.79,1028.19L1304.63,1028.2L1302.61,1028.29C1299.77,1028.44 1296.94,1028.66 1294.11,1028.95L1292.52,1029.12L1292.03,1029.18C1289.24,1029.49 1286.46,1029.88 1283.68,1030.33L1282.47,1030.53L1281.58,1030.68C1259.84,1034.45 1238.54,1042.21 1218.86,1053.28C1214.3,1055.84 1209.83,1058.58 1205.46,1061.5C1203.68,1062.68 1201.93,1063.89 1200.18,1065.13L1198.55,1066.3C1195.63,1068.42 1192.76,1070.61 1189.96,1072.88C1189.1,1073.58 1188.24,1074.28 1187.39,1074.99L1185.84,1076.29C1184.35,1077.56 1182.88,1078.85 1181.42,1080.16L1181.39,1080.19C1179.46,1081.93 1177.55,1083.71 1175.68,1085.53C1168.07,1092.92 1161,1100.92 1154.6,1109.45L1153.95,1110.31L1152.94,1111.69L1153.95,1110.31L1154.6,1109.45Z"/>
    </g>
</svg>
